<?xml version="1.0" encoding="utf-8"?>
<svg xmlns="http://www.w3.org/2000/svg" xmlns:xlink="http://www.w3.org/1999/xlink" width="600" height="400" viewBox="0 0 2400 1600">
<defs>
  <clipPath id="clip240">
    <rect x="0" y="0" width="2400" height="1600"/>
  </clipPath>
</defs>
<path clip-path="url(#clip240)" d="
M0 1600 L2400 1600 L2400 0 L0 0  Z
  " fill="#ffffff" fill-rule="evenodd" fill-opacity="1"/>
<defs>
  <clipPath id="clip241">
    <rect x="480" y="0" width="1681" height="1600"/>
  </clipPath>
</defs>
<path clip-path="url(#clip240)" d="
M166.205 686.448 L1152.76 686.448 L1152.76 47.2441 L166.205 47.2441  Z
  " fill="#ffffff" fill-rule="evenodd" fill-opacity="1"/>
<defs>
  <clipPath id="clip242">
    <rect x="166" y="47" width="988" height="640"/>
  </clipPath>
</defs>
<polyline clip-path="url(#clip242)" style="stroke:#000000; stroke-width:2; stroke-opacity:0.1; fill:none" points="
  312.891,686.448 312.891,47.2441 
  "/>
<polyline clip-path="url(#clip242)" style="stroke:#000000; stroke-width:2; stroke-opacity:0.1; fill:none" points="
  543.95,686.448 543.95,47.2441 
  "/>
<polyline clip-path="url(#clip242)" style="stroke:#000000; stroke-width:2; stroke-opacity:0.1; fill:none" points="
  775.01,686.448 775.01,47.2441 
  "/>
<polyline clip-path="url(#clip242)" style="stroke:#000000; stroke-width:2; stroke-opacity:0.1; fill:none" points="
  1006.07,686.448 1006.07,47.2441 
  "/>
<polyline clip-path="url(#clip242)" style="stroke:#000000; stroke-width:2; stroke-opacity:0.1; fill:none" points="
  166.205,668.357 1152.76,668.357 
  "/>
<polyline clip-path="url(#clip242)" style="stroke:#000000; stroke-width:2; stroke-opacity:0.1; fill:none" points="
  166.205,550.349 1152.76,550.349 
  "/>
<polyline clip-path="url(#clip242)" style="stroke:#000000; stroke-width:2; stroke-opacity:0.1; fill:none" points="
  166.205,432.341 1152.76,432.341 
  "/>
<polyline clip-path="url(#clip242)" style="stroke:#000000; stroke-width:2; stroke-opacity:0.1; fill:none" points="
  166.205,314.332 1152.76,314.332 
  "/>
<polyline clip-path="url(#clip242)" style="stroke:#000000; stroke-width:2; stroke-opacity:0.1; fill:none" points="
  166.205,196.324 1152.76,196.324 
  "/>
<polyline clip-path="url(#clip242)" style="stroke:#000000; stroke-width:2; stroke-opacity:0.1; fill:none" points="
  166.205,78.3157 1152.76,78.3157 
  "/>
<polyline clip-path="url(#clip240)" style="stroke:#000000; stroke-width:4; stroke-opacity:1; fill:none" points="
  166.205,686.448 1152.76,686.448 
  "/>
<polyline clip-path="url(#clip240)" style="stroke:#000000; stroke-width:4; stroke-opacity:1; fill:none" points="
  166.205,686.448 166.205,47.2441 
  "/>
<polyline clip-path="url(#clip240)" style="stroke:#000000; stroke-width:4; stroke-opacity:1; fill:none" points="
  312.891,686.448 312.891,678.777 
  "/>
<polyline clip-path="url(#clip240)" style="stroke:#000000; stroke-width:4; stroke-opacity:1; fill:none" points="
  543.95,686.448 543.95,678.777 
  "/>
<polyline clip-path="url(#clip240)" style="stroke:#000000; stroke-width:4; stroke-opacity:1; fill:none" points="
  775.01,686.448 775.01,678.777 
  "/>
<polyline clip-path="url(#clip240)" style="stroke:#000000; stroke-width:4; stroke-opacity:1; fill:none" points="
  1006.07,686.448 1006.07,678.777 
  "/>
<polyline clip-path="url(#clip240)" style="stroke:#000000; stroke-width:4; stroke-opacity:1; fill:none" points="
  166.205,668.357 178.043,668.357 
  "/>
<polyline clip-path="url(#clip240)" style="stroke:#000000; stroke-width:4; stroke-opacity:1; fill:none" points="
  166.205,550.349 178.043,550.349 
  "/>
<polyline clip-path="url(#clip240)" style="stroke:#000000; stroke-width:4; stroke-opacity:1; fill:none" points="
  166.205,432.341 178.043,432.341 
  "/>
<polyline clip-path="url(#clip240)" style="stroke:#000000; stroke-width:4; stroke-opacity:1; fill:none" points="
  166.205,314.332 178.043,314.332 
  "/>
<polyline clip-path="url(#clip240)" style="stroke:#000000; stroke-width:4; stroke-opacity:1; fill:none" points="
  166.205,196.324 178.043,196.324 
  "/>
<polyline clip-path="url(#clip240)" style="stroke:#000000; stroke-width:4; stroke-opacity:1; fill:none" points="
  166.205,78.3157 178.043,78.3157 
  "/>
<path clip-path="url(#clip240)" d="M 0 0 M312.891 708.439 Q309.28 708.439 307.451 712.003 Q305.645 715.545 305.645 722.675 Q305.645 729.781 307.451 733.346 Q309.28 736.887 312.891 736.887 Q316.525 736.887 318.33 733.346 Q320.159 729.781 320.159 722.675 Q320.159 715.545 318.33 712.003 Q316.525 708.439 312.891 708.439 M312.891 704.735 Q318.701 704.735 321.756 709.341 Q324.835 713.925 324.835 722.675 Q324.835 731.401 321.756 736.008 Q318.701 740.591 312.891 740.591 Q307.08 740.591 304.002 736.008 Q300.946 731.401 300.946 722.675 Q300.946 713.925 304.002 709.341 Q307.08 704.735 312.891 704.735 Z" fill="#000000" fill-rule="evenodd" fill-opacity="1" /><path clip-path="url(#clip240)" d="M 0 0 M534.332 735.985 L541.971 735.985 L541.971 709.619 L533.661 711.286 L533.661 707.027 L541.925 705.36 L546.601 705.36 L546.601 735.985 L554.24 735.985 L554.24 739.92 L534.332 739.92 L534.332 735.985 Z" fill="#000000" fill-rule="evenodd" fill-opacity="1" /><path clip-path="url(#clip240)" d="M 0 0 M769.663 735.985 L785.982 735.985 L785.982 739.92 L764.038 739.92 L764.038 735.985 Q766.7 733.23 771.283 728.6 Q775.89 723.948 777.07 722.605 Q779.316 720.082 780.195 718.346 Q781.098 716.587 781.098 714.897 Q781.098 712.142 779.154 710.406 Q777.232 708.67 774.131 708.67 Q771.931 708.67 769.478 709.434 Q767.047 710.198 764.269 711.749 L764.269 707.027 Q767.094 705.892 769.547 705.314 Q772.001 704.735 774.038 704.735 Q779.408 704.735 782.603 707.42 Q785.797 710.105 785.797 714.596 Q785.797 716.726 784.987 718.647 Q784.2 720.545 782.093 723.138 Q781.515 723.809 778.413 727.026 Q775.311 730.221 769.663 735.985 Z" fill="#000000" fill-rule="evenodd" fill-opacity="1" /><path clip-path="url(#clip240)" d="M 0 0 M1010.32 721.286 Q1013.67 722.003 1015.55 724.272 Q1017.45 726.54 1017.45 729.874 Q1017.45 734.989 1013.93 737.79 Q1010.41 740.591 1003.93 740.591 Q1001.75 740.591 999.438 740.151 Q997.146 739.735 994.693 738.878 L994.693 734.364 Q996.637 735.499 998.952 736.077 Q1001.27 736.656 1003.79 736.656 Q1008.19 736.656 1010.48 734.92 Q1012.79 733.184 1012.79 729.874 Q1012.79 726.818 1010.64 725.105 Q1008.51 723.369 1004.69 723.369 L1000.66 723.369 L1000.66 719.526 L1004.88 719.526 Q1008.33 719.526 1010.16 718.161 Q1011.98 716.772 1011.98 714.179 Q1011.98 711.517 1010.09 710.105 Q1008.21 708.67 1004.69 708.67 Q1002.77 708.67 1000.57 709.087 Q998.373 709.503 995.734 710.383 L995.734 706.216 Q998.396 705.476 1000.71 705.105 Q1003.05 704.735 1005.11 704.735 Q1010.43 704.735 1013.54 707.165 Q1016.64 709.573 1016.64 713.693 Q1016.64 716.564 1014.99 718.554 Q1013.35 720.522 1010.32 721.286 Z" fill="#000000" fill-rule="evenodd" fill-opacity="1" /><path clip-path="url(#clip240)" d="M 0 0 M130.26 654.156 Q126.649 654.156 124.82 657.721 Q123.015 661.262 123.015 668.392 Q123.015 675.498 124.82 679.063 Q126.649 682.605 130.26 682.605 Q133.895 682.605 135.7 679.063 Q137.529 675.498 137.529 668.392 Q137.529 661.262 135.7 657.721 Q133.895 654.156 130.26 654.156 M130.26 650.452 Q136.07 650.452 139.126 655.059 Q142.205 659.642 142.205 668.392 Q142.205 677.119 139.126 681.725 Q136.07 686.308 130.26 686.308 Q124.45 686.308 121.371 681.725 Q118.316 677.119 118.316 668.392 Q118.316 659.642 121.371 655.059 Q124.45 650.452 130.26 650.452 Z" fill="#000000" fill-rule="evenodd" fill-opacity="1" /><path clip-path="url(#clip240)" d="M 0 0 M68.2699 563.694 L75.9087 563.694 L75.9087 537.328 L67.5986 538.995 L67.5986 534.736 L75.8624 533.069 L80.5383 533.069 L80.5383 563.694 L88.1772 563.694 L88.1772 567.629 L68.2699 567.629 L68.2699 563.694 Z" fill="#000000" fill-rule="evenodd" fill-opacity="1" /><path clip-path="url(#clip240)" d="M 0 0 M103.247 536.148 Q99.6354 536.148 97.8068 539.712 Q96.0012 543.254 96.0012 550.384 Q96.0012 557.49 97.8068 561.055 Q99.6354 564.597 103.247 564.597 Q106.881 564.597 108.686 561.055 Q110.515 557.49 110.515 550.384 Q110.515 543.254 108.686 539.712 Q106.881 536.148 103.247 536.148 M103.247 532.444 Q109.057 532.444 112.112 537.05 Q115.191 541.634 115.191 550.384 Q115.191 559.11 112.112 563.717 Q109.057 568.3 103.247 568.3 Q97.4364 568.3 94.3577 563.717 Q91.3022 559.11 91.3022 550.384 Q91.3022 541.634 94.3577 537.05 Q97.4364 532.444 103.247 532.444 Z" fill="#000000" fill-rule="evenodd" fill-opacity="1" /><path clip-path="url(#clip240)" d="M 0 0 M130.26 536.148 Q126.649 536.148 124.82 539.712 Q123.015 543.254 123.015 550.384 Q123.015 557.49 124.82 561.055 Q126.649 564.597 130.26 564.597 Q133.895 564.597 135.7 561.055 Q137.529 557.49 137.529 550.384 Q137.529 543.254 135.7 539.712 Q133.895 536.148 130.26 536.148 M130.26 532.444 Q136.07 532.444 139.126 537.05 Q142.205 541.634 142.205 550.384 Q142.205 559.11 139.126 563.717 Q136.07 568.3 130.26 568.3 Q124.45 568.3 121.371 563.717 Q118.316 559.11 118.316 550.384 Q118.316 541.634 121.371 537.05 Q124.45 532.444 130.26 532.444 Z" fill="#000000" fill-rule="evenodd" fill-opacity="1" /><path clip-path="url(#clip240)" d="M 0 0 M71.8578 445.685 L88.1772 445.685 L88.1772 449.621 L66.2328 449.621 L66.2328 445.685 Q68.8949 442.931 73.4782 438.301 Q78.0846 433.648 79.2652 432.306 Q81.5105 429.783 82.3902 428.047 Q83.2929 426.287 83.2929 424.598 Q83.2929 421.843 81.3485 420.107 Q79.4272 418.371 76.3254 418.371 Q74.1263 418.371 71.6726 419.135 Q69.2421 419.899 66.4643 421.449 L66.4643 416.727 Q69.2884 415.593 71.7421 415.014 Q74.1958 414.436 76.2328 414.436 Q81.6031 414.436 84.7976 417.121 Q87.992 419.806 87.992 424.297 Q87.992 426.426 87.1818 428.348 Q86.3948 430.246 84.2883 432.838 Q83.7096 433.51 80.6078 436.727 Q77.5059 439.922 71.8578 445.685 Z" fill="#000000" fill-rule="evenodd" fill-opacity="1" /><path clip-path="url(#clip240)" d="M 0 0 M103.247 418.139 Q99.6354 418.139 97.8068 421.704 Q96.0012 425.246 96.0012 432.375 Q96.0012 439.482 97.8068 443.047 Q99.6354 446.588 103.247 446.588 Q106.881 446.588 108.686 443.047 Q110.515 439.482 110.515 432.375 Q110.515 425.246 108.686 421.704 Q106.881 418.139 103.247 418.139 M103.247 414.436 Q109.057 414.436 112.112 419.042 Q115.191 423.625 115.191 432.375 Q115.191 441.102 112.112 445.709 Q109.057 450.292 103.247 450.292 Q97.4364 450.292 94.3577 445.709 Q91.3022 441.102 91.3022 432.375 Q91.3022 423.625 94.3577 419.042 Q97.4364 414.436 103.247 414.436 Z" fill="#000000" fill-rule="evenodd" fill-opacity="1" /><path clip-path="url(#clip240)" d="M 0 0 M130.26 418.139 Q126.649 418.139 124.82 421.704 Q123.015 425.246 123.015 432.375 Q123.015 439.482 124.82 443.047 Q126.649 446.588 130.26 446.588 Q133.895 446.588 135.7 443.047 Q137.529 439.482 137.529 432.375 Q137.529 425.246 135.7 421.704 Q133.895 418.139 130.26 418.139 M130.26 414.436 Q136.07 414.436 139.126 419.042 Q142.205 423.625 142.205 432.375 Q142.205 441.102 139.126 445.709 Q136.07 450.292 130.26 450.292 Q124.45 450.292 121.371 445.709 Q118.316 441.102 118.316 432.375 Q118.316 423.625 121.371 419.042 Q124.45 414.436 130.26 414.436 Z" fill="#000000" fill-rule="evenodd" fill-opacity="1" /><path clip-path="url(#clip240)" d="M 0 0 M81.0476 312.978 Q84.404 313.696 86.279 315.964 Q88.1772 318.233 88.1772 321.566 Q88.1772 326.682 84.6587 329.483 Q81.1402 332.284 74.6587 332.284 Q72.4828 332.284 70.168 331.844 Q67.8764 331.427 65.4227 330.571 L65.4227 326.057 Q67.3671 327.191 69.6819 327.77 Q71.9967 328.348 74.5198 328.348 Q78.918 328.348 81.2096 326.612 Q83.5244 324.876 83.5244 321.566 Q83.5244 318.511 81.3717 316.798 Q79.242 315.061 75.4226 315.061 L71.3949 315.061 L71.3949 311.219 L75.6078 311.219 Q79.0569 311.219 80.8855 309.853 Q82.7142 308.464 82.7142 305.872 Q82.7142 303.21 80.8161 301.798 Q78.9411 300.362 75.4226 300.362 Q73.5013 300.362 71.3023 300.779 Q69.1032 301.196 66.4643 302.075 L66.4643 297.909 Q69.1264 297.168 71.4412 296.798 Q73.7791 296.427 75.8393 296.427 Q81.1633 296.427 84.2652 298.858 Q87.367 301.265 87.367 305.386 Q87.367 308.256 85.7235 310.247 Q84.08 312.214 81.0476 312.978 Z" fill="#000000" fill-rule="evenodd" fill-opacity="1" /><path clip-path="url(#clip240)" d="M 0 0 M103.247 300.131 Q99.6354 300.131 97.8068 303.696 Q96.0012 307.237 96.0012 314.367 Q96.0012 321.473 97.8068 325.038 Q99.6354 328.58 103.247 328.58 Q106.881 328.58 108.686 325.038 Q110.515 321.473 110.515 314.367 Q110.515 307.237 108.686 303.696 Q106.881 300.131 103.247 300.131 M103.247 296.427 Q109.057 296.427 112.112 301.034 Q115.191 305.617 115.191 314.367 Q115.191 323.094 112.112 327.7 Q109.057 332.284 103.247 332.284 Q97.4364 332.284 94.3577 327.7 Q91.3022 323.094 91.3022 314.367 Q91.3022 305.617 94.3577 301.034 Q97.4364 296.427 103.247 296.427 Z" fill="#000000" fill-rule="evenodd" fill-opacity="1" /><path clip-path="url(#clip240)" d="M 0 0 M130.26 300.131 Q126.649 300.131 124.82 303.696 Q123.015 307.237 123.015 314.367 Q123.015 321.473 124.82 325.038 Q126.649 328.58 130.26 328.58 Q133.895 328.58 135.7 325.038 Q137.529 321.473 137.529 314.367 Q137.529 307.237 135.7 303.696 Q133.895 300.131 130.26 300.131 M130.26 296.427 Q136.07 296.427 139.126 301.034 Q142.205 305.617 142.205 314.367 Q142.205 323.094 139.126 327.7 Q136.07 332.284 130.26 332.284 Q124.45 332.284 121.371 327.7 Q118.316 323.094 118.316 314.367 Q118.316 305.617 121.371 301.034 Q124.45 296.427 130.26 296.427 Z" fill="#000000" fill-rule="evenodd" fill-opacity="1" /><path clip-path="url(#clip240)" d="M 0 0 M78.5939 183.118 L66.7884 201.567 L78.5939 201.567 L78.5939 183.118 M77.367 179.044 L83.2466 179.044 L83.2466 201.567 L88.1772 201.567 L88.1772 205.456 L83.2466 205.456 L83.2466 213.604 L78.5939 213.604 L78.5939 205.456 L62.9921 205.456 L62.9921 200.942 L77.367 179.044 Z" fill="#000000" fill-rule="evenodd" fill-opacity="1" /><path clip-path="url(#clip240)" d="M 0 0 M103.247 182.123 Q99.6354 182.123 97.8068 185.687 Q96.0012 189.229 96.0012 196.359 Q96.0012 203.465 97.8068 207.03 Q99.6354 210.572 103.247 210.572 Q106.881 210.572 108.686 207.03 Q110.515 203.465 110.515 196.359 Q110.515 189.229 108.686 185.687 Q106.881 182.123 103.247 182.123 M103.247 178.419 Q109.057 178.419 112.112 183.025 Q115.191 187.609 115.191 196.359 Q115.191 205.086 112.112 209.692 Q109.057 214.275 103.247 214.275 Q97.4364 214.275 94.3577 209.692 Q91.3022 205.086 91.3022 196.359 Q91.3022 187.609 94.3577 183.025 Q97.4364 178.419 103.247 178.419 Z" fill="#000000" fill-rule="evenodd" fill-opacity="1" /><path clip-path="url(#clip240)" d="M 0 0 M130.26 182.123 Q126.649 182.123 124.82 185.687 Q123.015 189.229 123.015 196.359 Q123.015 203.465 124.82 207.03 Q126.649 210.572 130.26 210.572 Q133.895 210.572 135.7 207.03 Q137.529 203.465 137.529 196.359 Q137.529 189.229 135.7 185.687 Q133.895 182.123 130.26 182.123 M130.26 178.419 Q136.07 178.419 139.126 183.025 Q142.205 187.609 142.205 196.359 Q142.205 205.086 139.126 209.692 Q136.07 214.275 130.26 214.275 Q124.45 214.275 121.371 209.692 Q118.316 205.086 118.316 196.359 Q118.316 187.609 121.371 183.025 Q124.45 178.419 130.26 178.419 Z" fill="#000000" fill-rule="evenodd" fill-opacity="1" /><path clip-path="url(#clip240)" d="M 0 0 M67.2745 61.0357 L85.6309 61.0357 L85.6309 64.9708 L71.5569 64.9708 L71.5569 73.443 Q72.5754 73.0958 73.5939 72.9338 Q74.6124 72.7486 75.6309 72.7486 Q81.418 72.7486 84.7976 75.9199 Q88.1772 79.0911 88.1772 84.5078 Q88.1772 90.0865 84.705 93.1883 Q81.2328 96.267 74.9134 96.267 Q72.7374 96.267 70.4689 95.8966 Q68.2236 95.5262 65.8162 94.7855 L65.8162 90.0865 Q67.8995 91.2207 70.1217 91.7763 Q72.3439 92.3318 74.8208 92.3318 Q78.8254 92.3318 81.1633 90.2253 Q83.5013 88.1189 83.5013 84.5078 Q83.5013 80.8967 81.1633 78.7902 Q78.8254 76.6837 74.8208 76.6837 Q72.9458 76.6837 71.0708 77.1004 Q69.2189 77.5171 67.2745 78.3967 L67.2745 61.0357 Z" fill="#000000" fill-rule="evenodd" fill-opacity="1" /><path clip-path="url(#clip240)" d="M 0 0 M103.247 64.1144 Q99.6354 64.1144 97.8068 67.6792 Q96.0012 71.2208 96.0012 78.3504 Q96.0012 85.4568 97.8068 89.0216 Q99.6354 92.5633 103.247 92.5633 Q106.881 92.5633 108.686 89.0216 Q110.515 85.4568 110.515 78.3504 Q110.515 71.2208 108.686 67.6792 Q106.881 64.1144 103.247 64.1144 M103.247 60.4107 Q109.057 60.4107 112.112 65.0171 Q115.191 69.6004 115.191 78.3504 Q115.191 87.0772 112.112 91.6837 Q109.057 96.267 103.247 96.267 Q97.4364 96.267 94.3577 91.6837 Q91.3022 87.0772 91.3022 78.3504 Q91.3022 69.6004 94.3577 65.0171 Q97.4364 60.4107 103.247 60.4107 Z" fill="#000000" fill-rule="evenodd" fill-opacity="1" /><path clip-path="url(#clip240)" d="M 0 0 M130.26 64.1144 Q126.649 64.1144 124.82 67.6792 Q123.015 71.2208 123.015 78.3504 Q123.015 85.4568 124.82 89.0216 Q126.649 92.5633 130.26 92.5633 Q133.895 92.5633 135.7 89.0216 Q137.529 85.4568 137.529 78.3504 Q137.529 71.2208 135.7 67.6792 Q133.895 64.1144 130.26 64.1144 M130.26 60.4107 Q136.07 60.4107 139.126 65.0171 Q142.205 69.6004 142.205 78.3504 Q142.205 87.0772 139.126 91.6837 Q136.07 96.267 130.26 96.267 Q124.45 96.267 121.371 91.6837 Q118.316 87.0772 118.316 78.3504 Q118.316 69.6004 121.371 65.0171 Q124.45 60.4107 130.26 60.4107 Z" fill="#000000" fill-rule="evenodd" fill-opacity="1" /><path clip-path="url(#clip242)" d="
M220.467 65.3348 L220.467 668.357 L405.315 668.357 L405.315 65.3348 L220.467 65.3348 L220.467 65.3348  Z
  " fill="#009af9" fill-rule="evenodd" fill-opacity="1"/>
<polyline clip-path="url(#clip242)" style="stroke:#000000; stroke-width:4; stroke-opacity:1; fill:none" points="
  220.467,65.3348 220.467,668.357 405.315,668.357 405.315,65.3348 220.467,65.3348 
  "/>
<path clip-path="url(#clip242)" d="
M451.526 668.357 L451.526 668.357 L636.374 668.357 L636.374 668.357 L451.526 668.357 L451.526 668.357  Z
  " fill="#009af9" fill-rule="evenodd" fill-opacity="1"/>
<polyline clip-path="url(#clip242)" style="stroke:#000000; stroke-width:4; stroke-opacity:1; fill:none" points="
  451.526,668.357 451.526,668.357 636.374,668.357 451.526,668.357 
  "/>
<path clip-path="url(#clip242)" d="
M682.586 668.357 L682.586 668.357 L867.434 668.357 L867.434 668.357 L682.586 668.357 L682.586 668.357  Z
  " fill="#009af9" fill-rule="evenodd" fill-opacity="1"/>
<polyline clip-path="url(#clip242)" style="stroke:#000000; stroke-width:4; stroke-opacity:1; fill:none" points="
  682.586,668.357 682.586,668.357 867.434,668.357 682.586,668.357 
  "/>
<path clip-path="url(#clip242)" d="
M913.646 91.2966 L913.646 668.357 L1098.49 668.357 L1098.49 91.2966 L913.646 91.2966 L913.646 91.2966  Z
  " fill="#009af9" fill-rule="evenodd" fill-opacity="1"/>
<polyline clip-path="url(#clip242)" style="stroke:#000000; stroke-width:4; stroke-opacity:1; fill:none" points="
  913.646,91.2966 913.646,668.357 1098.49,668.357 1098.49,91.2966 913.646,91.2966 
  "/>
<path clip-path="url(#clip240)" d="
M1366.2 686.448 L2352.76 686.448 L2352.76 47.2441 L1366.2 47.2441  Z
  " fill="#ffffff" fill-rule="evenodd" fill-opacity="1"/>
<defs>
  <clipPath id="clip243">
    <rect x="1366" y="47" width="988" height="640"/>
  </clipPath>
</defs>
<polyline clip-path="url(#clip243)" style="stroke:#000000; stroke-width:2; stroke-opacity:0.1; fill:none" points="
  1465.49,686.448 1465.49,47.2441 
  "/>
<polyline clip-path="url(#clip243)" style="stroke:#000000; stroke-width:2; stroke-opacity:0.1; fill:none" points="
  1690.63,686.448 1690.63,47.2441 
  "/>
<polyline clip-path="url(#clip243)" style="stroke:#000000; stroke-width:2; stroke-opacity:0.1; fill:none" points="
  1915.76,686.448 1915.76,47.2441 
  "/>
<polyline clip-path="url(#clip243)" style="stroke:#000000; stroke-width:2; stroke-opacity:0.1; fill:none" points="
  2140.9,686.448 2140.9,47.2441 
  "/>
<polyline clip-path="url(#clip243)" style="stroke:#000000; stroke-width:2; stroke-opacity:0.1; fill:none" points="
  1366.2,668.357 2352.76,668.357 
  "/>
<polyline clip-path="url(#clip243)" style="stroke:#000000; stroke-width:2; stroke-opacity:0.1; fill:none" points="
  1366.2,552.614 2352.76,552.614 
  "/>
<polyline clip-path="url(#clip243)" style="stroke:#000000; stroke-width:2; stroke-opacity:0.1; fill:none" points="
  1366.2,436.871 2352.76,436.871 
  "/>
<polyline clip-path="url(#clip243)" style="stroke:#000000; stroke-width:2; stroke-opacity:0.1; fill:none" points="
  1366.2,321.127 2352.76,321.127 
  "/>
<polyline clip-path="url(#clip243)" style="stroke:#000000; stroke-width:2; stroke-opacity:0.1; fill:none" points="
  1366.2,205.384 2352.76,205.384 
  "/>
<polyline clip-path="url(#clip243)" style="stroke:#000000; stroke-width:2; stroke-opacity:0.1; fill:none" points="
  1366.2,89.6409 2352.76,89.6409 
  "/>
<polyline clip-path="url(#clip240)" style="stroke:#000000; stroke-width:4; stroke-opacity:1; fill:none" points="
  1366.2,686.448 2352.76,686.448 
  "/>
<polyline clip-path="url(#clip240)" style="stroke:#000000; stroke-width:4; stroke-opacity:1; fill:none" points="
  1366.2,686.448 1366.2,47.2441 
  "/>
<polyline clip-path="url(#clip240)" style="stroke:#000000; stroke-width:4; stroke-opacity:1; fill:none" points="
  1465.49,686.448 1465.49,678.777 
  "/>
<polyline clip-path="url(#clip240)" style="stroke:#000000; stroke-width:4; stroke-opacity:1; fill:none" points="
  1690.63,686.448 1690.63,678.777 
  "/>
<polyline clip-path="url(#clip240)" style="stroke:#000000; stroke-width:4; stroke-opacity:1; fill:none" points="
  1915.76,686.448 1915.76,678.777 
  "/>
<polyline clip-path="url(#clip240)" style="stroke:#000000; stroke-width:4; stroke-opacity:1; fill:none" points="
  2140.9,686.448 2140.9,678.777 
  "/>
<polyline clip-path="url(#clip240)" style="stroke:#000000; stroke-width:4; stroke-opacity:1; fill:none" points="
  1366.2,668.357 1378.04,668.357 
  "/>
<polyline clip-path="url(#clip240)" style="stroke:#000000; stroke-width:4; stroke-opacity:1; fill:none" points="
  1366.2,552.614 1378.04,552.614 
  "/>
<polyline clip-path="url(#clip240)" style="stroke:#000000; stroke-width:4; stroke-opacity:1; fill:none" points="
  1366.2,436.871 1378.04,436.871 
  "/>
<polyline clip-path="url(#clip240)" style="stroke:#000000; stroke-width:4; stroke-opacity:1; fill:none" points="
  1366.2,321.127 1378.04,321.127 
  "/>
<polyline clip-path="url(#clip240)" style="stroke:#000000; stroke-width:4; stroke-opacity:1; fill:none" points="
  1366.2,205.384 1378.04,205.384 
  "/>
<polyline clip-path="url(#clip240)" style="stroke:#000000; stroke-width:4; stroke-opacity:1; fill:none" points="
  1366.2,89.6409 1378.04,89.6409 
  "/>
<path clip-path="url(#clip240)" d="M 0 0 M1465.49 708.439 Q1461.88 708.439 1460.05 712.003 Q1458.25 715.545 1458.25 722.675 Q1458.25 729.781 1460.05 733.346 Q1461.88 736.887 1465.49 736.887 Q1469.13 736.887 1470.93 733.346 Q1472.76 729.781 1472.76 722.675 Q1472.76 715.545 1470.93 712.003 Q1469.13 708.439 1465.49 708.439 M1465.49 704.735 Q1471.3 704.735 1474.36 709.341 Q1477.44 713.925 1477.44 722.675 Q1477.44 731.401 1474.36 736.008 Q1471.3 740.591 1465.49 740.591 Q1459.68 740.591 1456.6 736.008 Q1453.55 731.401 1453.55 722.675 Q1453.55 713.925 1456.6 709.341 Q1459.68 704.735 1465.49 704.735 Z" fill="#000000" fill-rule="evenodd" fill-opacity="1" /><path clip-path="url(#clip240)" d="M 0 0 M1685.28 735.985 L1701.6 735.985 L1701.6 739.92 L1679.66 739.92 L1679.66 735.985 Q1682.32 733.23 1686.9 728.6 Q1691.51 723.948 1692.69 722.605 Q1694.93 720.082 1695.81 718.346 Q1696.72 716.587 1696.72 714.897 Q1696.72 712.142 1694.77 710.406 Q1692.85 708.67 1689.75 708.67 Q1687.55 708.67 1685.1 709.434 Q1682.67 710.198 1679.89 711.749 L1679.89 707.027 Q1682.71 705.892 1685.17 705.314 Q1687.62 704.735 1689.66 704.735 Q1695.03 704.735 1698.22 707.42 Q1701.42 710.105 1701.42 714.596 Q1701.42 716.726 1700.61 718.647 Q1699.82 720.545 1697.71 723.138 Q1697.13 723.809 1694.03 727.026 Q1690.93 730.221 1685.28 735.985 Z" fill="#000000" fill-rule="evenodd" fill-opacity="1" /><path clip-path="url(#clip240)" d="M 0 0 M1918.77 709.434 L1906.97 727.883 L1918.77 727.883 L1918.77 709.434 M1917.55 705.36 L1923.43 705.36 L1923.43 727.883 L1928.36 727.883 L1928.36 731.772 L1923.43 731.772 L1923.43 739.92 L1918.77 739.92 L1918.77 731.772 L1903.17 731.772 L1903.17 727.258 L1917.55 705.36 Z" fill="#000000" fill-rule="evenodd" fill-opacity="1" /><path clip-path="url(#clip240)" d="M 0 0 M2141.3 720.776 Q2138.16 720.776 2136.3 722.929 Q2134.48 725.082 2134.48 728.832 Q2134.48 732.559 2136.3 734.735 Q2138.16 736.887 2141.3 736.887 Q2144.45 736.887 2146.28 734.735 Q2148.13 732.559 2148.13 728.832 Q2148.13 725.082 2146.28 722.929 Q2144.45 720.776 2141.3 720.776 M2150.59 706.124 L2150.59 710.383 Q2148.83 709.55 2147.02 709.11 Q2145.24 708.67 2143.48 708.67 Q2138.85 708.67 2136.4 711.795 Q2133.97 714.92 2133.62 721.239 Q2134.98 719.226 2137.05 718.161 Q2139.11 717.073 2141.58 717.073 Q2146.79 717.073 2149.8 720.244 Q2152.83 723.392 2152.83 728.832 Q2152.83 734.156 2149.68 737.374 Q2146.54 740.591 2141.3 740.591 Q2135.31 740.591 2132.14 736.008 Q2128.97 731.401 2128.97 722.675 Q2128.97 714.48 2132.86 709.619 Q2136.74 704.735 2143.3 704.735 Q2145.05 704.735 2146.84 705.082 Q2148.64 705.429 2150.59 706.124 Z" fill="#000000" fill-rule="evenodd" fill-opacity="1" /><path clip-path="url(#clip240)" d="M 0 0 M1330.26 654.156 Q1326.65 654.156 1324.82 657.721 Q1323.01 661.262 1323.01 668.392 Q1323.01 675.498 1324.82 679.063 Q1326.65 682.605 1330.26 682.605 Q1333.89 682.605 1335.7 679.063 Q1337.53 675.498 1337.53 668.392 Q1337.53 661.262 1335.7 657.721 Q1333.89 654.156 1330.26 654.156 M1330.26 650.452 Q1336.07 650.452 1339.13 655.059 Q1342.2 659.642 1342.2 668.392 Q1342.2 677.119 1339.13 681.725 Q1336.07 686.308 1330.26 686.308 Q1324.45 686.308 1321.37 681.725 Q1318.32 677.119 1318.32 668.392 Q1318.32 659.642 1321.37 655.059 Q1324.45 650.452 1330.26 650.452 Z" fill="#000000" fill-rule="evenodd" fill-opacity="1" /><path clip-path="url(#clip240)" d="M 0 0 M1268.27 565.959 L1275.91 565.959 L1275.91 539.593 L1267.6 541.26 L1267.6 537.001 L1275.86 535.334 L1280.54 535.334 L1280.54 565.959 L1288.18 565.959 L1288.18 569.894 L1268.27 569.894 L1268.27 565.959 Z" fill="#000000" fill-rule="evenodd" fill-opacity="1" /><path clip-path="url(#clip240)" d="M 0 0 M1303.25 538.413 Q1299.64 538.413 1297.81 541.977 Q1296 545.519 1296 552.649 Q1296 559.755 1297.81 563.32 Q1299.64 566.862 1303.25 566.862 Q1306.88 566.862 1308.69 563.32 Q1310.52 559.755 1310.52 552.649 Q1310.52 545.519 1308.69 541.977 Q1306.88 538.413 1303.25 538.413 M1303.25 534.709 Q1309.06 534.709 1312.11 539.315 Q1315.19 543.899 1315.19 552.649 Q1315.19 561.375 1312.11 565.982 Q1309.06 570.565 1303.25 570.565 Q1297.44 570.565 1294.36 565.982 Q1291.3 561.375 1291.3 552.649 Q1291.3 543.899 1294.36 539.315 Q1297.44 534.709 1303.25 534.709 Z" fill="#000000" fill-rule="evenodd" fill-opacity="1" /><path clip-path="url(#clip240)" d="M 0 0 M1330.26 538.413 Q1326.65 538.413 1324.82 541.977 Q1323.01 545.519 1323.01 552.649 Q1323.01 559.755 1324.82 563.32 Q1326.65 566.862 1330.26 566.862 Q1333.89 566.862 1335.7 563.32 Q1337.53 559.755 1337.53 552.649 Q1337.53 545.519 1335.7 541.977 Q1333.89 538.413 1330.26 538.413 M1330.26 534.709 Q1336.07 534.709 1339.13 539.315 Q1342.2 543.899 1342.2 552.649 Q1342.2 561.375 1339.13 565.982 Q1336.07 570.565 1330.26 570.565 Q1324.45 570.565 1321.37 565.982 Q1318.32 561.375 1318.32 552.649 Q1318.32 543.899 1321.37 539.315 Q1324.45 534.709 1330.26 534.709 Z" fill="#000000" fill-rule="evenodd" fill-opacity="1" /><path clip-path="url(#clip240)" d="M 0 0 M1271.86 450.215 L1288.18 450.215 L1288.18 454.151 L1266.23 454.151 L1266.23 450.215 Q1268.89 447.461 1273.48 442.831 Q1278.08 438.179 1279.27 436.836 Q1281.51 434.313 1282.39 432.577 Q1283.29 430.817 1283.29 429.128 Q1283.29 426.373 1281.35 424.637 Q1279.43 422.901 1276.33 422.901 Q1274.13 422.901 1271.67 423.665 Q1269.24 424.429 1266.46 425.98 L1266.46 421.257 Q1269.29 420.123 1271.74 419.544 Q1274.2 418.966 1276.23 418.966 Q1281.6 418.966 1284.8 421.651 Q1287.99 424.336 1287.99 428.827 Q1287.99 430.956 1287.18 432.878 Q1286.39 434.776 1284.29 437.368 Q1283.71 438.04 1280.61 441.257 Q1277.51 444.452 1271.86 450.215 Z" fill="#000000" fill-rule="evenodd" fill-opacity="1" /><path clip-path="url(#clip240)" d="M 0 0 M1303.25 422.669 Q1299.64 422.669 1297.81 426.234 Q1296 429.776 1296 436.905 Q1296 444.012 1297.81 447.577 Q1299.64 451.118 1303.25 451.118 Q1306.88 451.118 1308.69 447.577 Q1310.52 444.012 1310.52 436.905 Q1310.52 429.776 1308.69 426.234 Q1306.88 422.669 1303.25 422.669 M1303.25 418.966 Q1309.06 418.966 1312.11 423.572 Q1315.19 428.155 1315.19 436.905 Q1315.19 445.632 1312.11 450.239 Q1309.06 454.822 1303.25 454.822 Q1297.44 454.822 1294.36 450.239 Q1291.3 445.632 1291.3 436.905 Q1291.3 428.155 1294.36 423.572 Q1297.44 418.966 1303.25 418.966 Z" fill="#000000" fill-rule="evenodd" fill-opacity="1" /><path clip-path="url(#clip240)" d="M 0 0 M1330.26 422.669 Q1326.65 422.669 1324.82 426.234 Q1323.01 429.776 1323.01 436.905 Q1323.01 444.012 1324.82 447.577 Q1326.65 451.118 1330.26 451.118 Q1333.89 451.118 1335.7 447.577 Q1337.53 444.012 1337.53 436.905 Q1337.53 429.776 1335.7 426.234 Q1333.89 422.669 1330.26 422.669 M1330.26 418.966 Q1336.07 418.966 1339.13 423.572 Q1342.2 428.155 1342.2 436.905 Q1342.2 445.632 1339.13 450.239 Q1336.07 454.822 1330.26 454.822 Q1324.45 454.822 1321.37 450.239 Q1318.32 445.632 1318.32 436.905 Q1318.32 428.155 1321.37 423.572 Q1324.45 418.966 1330.26 418.966 Z" fill="#000000" fill-rule="evenodd" fill-opacity="1" /><path clip-path="url(#clip240)" d="M 0 0 M1281.05 319.773 Q1284.4 320.491 1286.28 322.759 Q1288.18 325.028 1288.18 328.361 Q1288.18 333.477 1284.66 336.278 Q1281.14 339.079 1274.66 339.079 Q1272.48 339.079 1270.17 338.639 Q1267.88 338.222 1265.42 337.366 L1265.42 332.852 Q1267.37 333.986 1269.68 334.565 Q1272 335.144 1274.52 335.144 Q1278.92 335.144 1281.21 333.407 Q1283.52 331.671 1283.52 328.361 Q1283.52 325.306 1281.37 323.593 Q1279.24 321.857 1275.42 321.857 L1271.39 321.857 L1271.39 318.014 L1275.61 318.014 Q1279.06 318.014 1280.89 316.648 Q1282.71 315.259 1282.71 312.667 Q1282.71 310.005 1280.82 308.593 Q1278.94 307.158 1275.42 307.158 Q1273.5 307.158 1271.3 307.574 Q1269.1 307.991 1266.46 308.871 L1266.46 304.704 Q1269.13 303.963 1271.44 303.593 Q1273.78 303.222 1275.84 303.222 Q1281.16 303.222 1284.27 305.653 Q1287.37 308.06 1287.37 312.181 Q1287.37 315.051 1285.72 317.042 Q1284.08 319.009 1281.05 319.773 Z" fill="#000000" fill-rule="evenodd" fill-opacity="1" /><path clip-path="url(#clip240)" d="M 0 0 M1303.25 306.926 Q1299.64 306.926 1297.81 310.491 Q1296 314.033 1296 321.162 Q1296 328.269 1297.81 331.833 Q1299.64 335.375 1303.25 335.375 Q1306.88 335.375 1308.69 331.833 Q1310.52 328.269 1310.52 321.162 Q1310.52 314.033 1308.69 310.491 Q1306.88 306.926 1303.25 306.926 M1303.25 303.222 Q1309.06 303.222 1312.11 307.829 Q1315.19 312.412 1315.19 321.162 Q1315.19 329.889 1312.11 334.495 Q1309.06 339.079 1303.25 339.079 Q1297.44 339.079 1294.36 334.495 Q1291.3 329.889 1291.3 321.162 Q1291.3 312.412 1294.36 307.829 Q1297.44 303.222 1303.25 303.222 Z" fill="#000000" fill-rule="evenodd" fill-opacity="1" /><path clip-path="url(#clip240)" d="M 0 0 M1330.26 306.926 Q1326.65 306.926 1324.82 310.491 Q1323.01 314.033 1323.01 321.162 Q1323.01 328.269 1324.82 331.833 Q1326.65 335.375 1330.26 335.375 Q1333.89 335.375 1335.7 331.833 Q1337.53 328.269 1337.53 321.162 Q1337.53 314.033 1335.7 310.491 Q1333.89 306.926 1330.26 306.926 M1330.26 303.222 Q1336.07 303.222 1339.13 307.829 Q1342.2 312.412 1342.2 321.162 Q1342.2 329.889 1339.13 334.495 Q1336.07 339.079 1330.26 339.079 Q1324.45 339.079 1321.37 334.495 Q1318.32 329.889 1318.32 321.162 Q1318.32 312.412 1321.37 307.829 Q1324.45 303.222 1330.26 303.222 Z" fill="#000000" fill-rule="evenodd" fill-opacity="1" /><path clip-path="url(#clip240)" d="M 0 0 M1278.59 192.178 L1266.79 210.627 L1278.59 210.627 L1278.59 192.178 M1277.37 188.104 L1283.25 188.104 L1283.25 210.627 L1288.18 210.627 L1288.18 214.516 L1283.25 214.516 L1283.25 222.664 L1278.59 222.664 L1278.59 214.516 L1262.99 214.516 L1262.99 210.002 L1277.37 188.104 Z" fill="#000000" fill-rule="evenodd" fill-opacity="1" /><path clip-path="url(#clip240)" d="M 0 0 M1303.25 191.183 Q1299.64 191.183 1297.81 194.748 Q1296 198.289 1296 205.419 Q1296 212.525 1297.81 216.09 Q1299.64 219.632 1303.25 219.632 Q1306.88 219.632 1308.69 216.09 Q1310.52 212.525 1310.52 205.419 Q1310.52 198.289 1308.69 194.748 Q1306.88 191.183 1303.25 191.183 M1303.25 187.479 Q1309.06 187.479 1312.11 192.086 Q1315.19 196.669 1315.19 205.419 Q1315.19 214.146 1312.11 218.752 Q1309.06 223.335 1303.25 223.335 Q1297.44 223.335 1294.36 218.752 Q1291.3 214.146 1291.3 205.419 Q1291.3 196.669 1294.36 192.086 Q1297.44 187.479 1303.25 187.479 Z" fill="#000000" fill-rule="evenodd" fill-opacity="1" /><path clip-path="url(#clip240)" d="M 0 0 M1330.26 191.183 Q1326.65 191.183 1324.82 194.748 Q1323.01 198.289 1323.01 205.419 Q1323.01 212.525 1324.82 216.09 Q1326.65 219.632 1330.26 219.632 Q1333.89 219.632 1335.7 216.09 Q1337.53 212.525 1337.53 205.419 Q1337.53 198.289 1335.7 194.748 Q1333.89 191.183 1330.26 191.183 M1330.26 187.479 Q1336.07 187.479 1339.13 192.086 Q1342.2 196.669 1342.2 205.419 Q1342.2 214.146 1339.13 218.752 Q1336.07 223.335 1330.26 223.335 Q1324.45 223.335 1321.37 218.752 Q1318.32 214.146 1318.32 205.419 Q1318.32 196.669 1321.37 192.086 Q1324.45 187.479 1330.26 187.479 Z" fill="#000000" fill-rule="evenodd" fill-opacity="1" /><path clip-path="url(#clip240)" d="M 0 0 M1267.27 72.3609 L1285.63 72.3609 L1285.63 76.296 L1271.56 76.296 L1271.56 84.7682 Q1272.58 84.421 1273.59 84.2589 Q1274.61 84.0738 1275.63 84.0738 Q1281.42 84.0738 1284.8 87.245 Q1288.18 90.4163 1288.18 95.833 Q1288.18 101.412 1284.7 104.513 Q1281.23 107.592 1274.91 107.592 Q1272.74 107.592 1270.47 107.222 Q1268.22 106.851 1265.82 106.111 L1265.82 101.412 Q1267.9 102.546 1270.12 103.101 Q1272.34 103.657 1274.82 103.657 Q1278.83 103.657 1281.16 101.551 Q1283.5 99.444 1283.5 95.833 Q1283.5 92.2219 1281.16 90.1154 Q1278.83 88.0089 1274.82 88.0089 Q1272.95 88.0089 1271.07 88.4256 Q1269.22 88.8422 1267.27 89.7219 L1267.27 72.3609 Z" fill="#000000" fill-rule="evenodd" fill-opacity="1" /><path clip-path="url(#clip240)" d="M 0 0 M1303.25 75.4395 Q1299.64 75.4395 1297.81 79.0043 Q1296 82.546 1296 89.6756 Q1296 96.782 1297.81 100.347 Q1299.64 103.888 1303.25 103.888 Q1306.88 103.888 1308.69 100.347 Q1310.52 96.782 1310.52 89.6756 Q1310.52 82.546 1308.69 79.0043 Q1306.88 75.4395 1303.25 75.4395 M1303.25 71.7359 Q1309.06 71.7359 1312.11 76.3423 Q1315.19 80.9256 1315.19 89.6756 Q1315.19 98.4024 1312.11 103.009 Q1309.06 107.592 1303.25 107.592 Q1297.44 107.592 1294.36 103.009 Q1291.3 98.4024 1291.3 89.6756 Q1291.3 80.9256 1294.36 76.3423 Q1297.44 71.7359 1303.25 71.7359 Z" fill="#000000" fill-rule="evenodd" fill-opacity="1" /><path clip-path="url(#clip240)" d="M 0 0 M1330.26 75.4395 Q1326.65 75.4395 1324.82 79.0043 Q1323.01 82.546 1323.01 89.6756 Q1323.01 96.782 1324.82 100.347 Q1326.65 103.888 1330.26 103.888 Q1333.89 103.888 1335.7 100.347 Q1337.53 96.782 1337.53 89.6756 Q1337.53 82.546 1335.7 79.0043 Q1333.89 75.4395 1330.26 75.4395 M1330.26 71.7359 Q1336.07 71.7359 1339.13 76.3423 Q1342.2 80.9256 1342.2 89.6756 Q1342.2 98.4024 1339.13 103.009 Q1336.07 107.592 1330.26 107.592 Q1324.45 107.592 1321.37 103.009 Q1318.32 98.4024 1318.32 89.6756 Q1318.32 80.9256 1321.37 76.3423 Q1324.45 71.7359 1330.26 71.7359 Z" fill="#000000" fill-rule="evenodd" fill-opacity="1" /><path clip-path="url(#clip243)" d="
M1420.47 65.3348 L1420.47 668.357 L1510.52 668.357 L1510.52 65.3348 L1420.47 65.3348 L1420.47 65.3348  Z
  " fill="#009af9" fill-rule="evenodd" fill-opacity="1"/>
<polyline clip-path="url(#clip243)" style="stroke:#000000; stroke-width:4; stroke-opacity:1; fill:none" points="
  1420.47,65.3348 1420.47,668.357 1510.52,668.357 1510.52,65.3348 1420.47,65.3348 
  "/>
<path clip-path="url(#clip243)" d="
M1533.03 668.357 L1533.03 668.357 L1623.09 668.357 L1623.09 668.357 L1533.03 668.357 L1533.03 668.357  Z
  " fill="#009af9" fill-rule="evenodd" fill-opacity="1"/>
<polyline clip-path="url(#clip243)" style="stroke:#000000; stroke-width:4; stroke-opacity:1; fill:none" points="
  1533.03,668.357 1533.03,668.357 1623.09,668.357 1533.03,668.357 
  "/>
<path clip-path="url(#clip243)" d="
M1645.6 668.357 L1645.6 668.357 L1735.66 668.357 L1735.66 668.357 L1645.6 668.357 L1645.6 668.357  Z
  " fill="#009af9" fill-rule="evenodd" fill-opacity="1"/>
<polyline clip-path="url(#clip243)" style="stroke:#000000; stroke-width:4; stroke-opacity:1; fill:none" points="
  1645.6,668.357 1645.6,668.357 1735.66,668.357 1645.6,668.357 
  "/>
<path clip-path="url(#clip243)" d="
M1758.17 668.357 L1758.17 668.357 L1848.22 668.357 L1848.22 668.357 L1758.17 668.357 L1758.17 668.357  Z
  " fill="#009af9" fill-rule="evenodd" fill-opacity="1"/>
<polyline clip-path="url(#clip243)" style="stroke:#000000; stroke-width:4; stroke-opacity:1; fill:none" points="
  1758.17,668.357 1758.17,668.357 1848.22,668.357 1758.17,668.357 
  "/>
<path clip-path="url(#clip243)" d="
M1870.74 668.357 L1870.74 668.357 L1960.79 668.357 L1960.79 668.357 L1870.74 668.357 L1870.74 668.357  Z
  " fill="#009af9" fill-rule="evenodd" fill-opacity="1"/>
<polyline clip-path="url(#clip243)" style="stroke:#000000; stroke-width:4; stroke-opacity:1; fill:none" points="
  1870.74,668.357 1870.74,668.357 1960.79,668.357 1870.74,668.357 
  "/>
<path clip-path="url(#clip243)" d="
M1983.3 668.357 L1983.3 668.357 L2073.36 668.357 L2073.36 668.357 L1983.3 668.357 L1983.3 668.357  Z
  " fill="#009af9" fill-rule="evenodd" fill-opacity="1"/>
<polyline clip-path="url(#clip243)" style="stroke:#000000; stroke-width:4; stroke-opacity:1; fill:none" points="
  1983.3,668.357 1983.3,668.357 2073.36,668.357 1983.3,668.357 
  "/>
<path clip-path="url(#clip243)" d="
M2095.87 668.357 L2095.87 668.357 L2185.93 668.357 L2185.93 668.357 L2095.87 668.357 L2095.87 668.357  Z
  " fill="#009af9" fill-rule="evenodd" fill-opacity="1"/>
<polyline clip-path="url(#clip243)" style="stroke:#000000; stroke-width:4; stroke-opacity:1; fill:none" points="
  2095.87,668.357 2095.87,668.357 2185.93,668.357 2095.87,668.357 
  "/>
<path clip-path="url(#clip243)" d="
M2208.44 113.947 L2208.44 668.357 L2298.49 668.357 L2298.49 113.947 L2208.44 113.947 L2208.44 113.947  Z
  " fill="#009af9" fill-rule="evenodd" fill-opacity="1"/>
<polyline clip-path="url(#clip243)" style="stroke:#000000; stroke-width:4; stroke-opacity:1; fill:none" points="
  2208.44,113.947 2208.44,668.357 2298.49,668.357 2298.49,113.947 2208.44,113.947 
  "/>
<path clip-path="url(#clip240)" d="
M166.205 1486.45 L1152.76 1486.45 L1152.76 847.244 L166.205 847.244  Z
  " fill="#ffffff" fill-rule="evenodd" fill-opacity="1"/>
<defs>
  <clipPath id="clip244">
    <rect x="166" y="847" width="988" height="640"/>
  </clipPath>
</defs>
<polyline clip-path="url(#clip244)" style="stroke:#000000; stroke-width:2; stroke-opacity:0.1; fill:none" points="
  242.695,1486.45 242.695,847.244 
  "/>
<polyline clip-path="url(#clip244)" style="stroke:#000000; stroke-width:2; stroke-opacity:0.1; fill:none" points="
  520.552,1486.45 520.552,847.244 
  "/>
<polyline clip-path="url(#clip244)" style="stroke:#000000; stroke-width:2; stroke-opacity:0.1; fill:none" points="
  798.409,1486.45 798.409,847.244 
  "/>
<polyline clip-path="url(#clip244)" style="stroke:#000000; stroke-width:2; stroke-opacity:0.1; fill:none" points="
  1076.27,1486.45 1076.27,847.244 
  "/>
<polyline clip-path="url(#clip244)" style="stroke:#000000; stroke-width:2; stroke-opacity:0.1; fill:none" points="
  166.205,1468.36 1152.76,1468.36 
  "/>
<polyline clip-path="url(#clip244)" style="stroke:#000000; stroke-width:2; stroke-opacity:0.1; fill:none" points="
  166.205,1354.36 1152.76,1354.36 
  "/>
<polyline clip-path="url(#clip244)" style="stroke:#000000; stroke-width:2; stroke-opacity:0.1; fill:none" points="
  166.205,1240.37 1152.76,1240.37 
  "/>
<polyline clip-path="url(#clip244)" style="stroke:#000000; stroke-width:2; stroke-opacity:0.1; fill:none" points="
  166.205,1126.38 1152.76,1126.38 
  "/>
<polyline clip-path="url(#clip244)" style="stroke:#000000; stroke-width:2; stroke-opacity:0.1; fill:none" points="
  166.205,1012.39 1152.76,1012.39 
  "/>
<polyline clip-path="url(#clip244)" style="stroke:#000000; stroke-width:2; stroke-opacity:0.1; fill:none" points="
  166.205,898.393 1152.76,898.393 
  "/>
<polyline clip-path="url(#clip240)" style="stroke:#000000; stroke-width:4; stroke-opacity:1; fill:none" points="
  166.205,1486.45 1152.76,1486.45 
  "/>
<polyline clip-path="url(#clip240)" style="stroke:#000000; stroke-width:4; stroke-opacity:1; fill:none" points="
  166.205,1486.45 166.205,847.244 
  "/>
<polyline clip-path="url(#clip240)" style="stroke:#000000; stroke-width:4; stroke-opacity:1; fill:none" points="
  242.695,1486.45 242.695,1478.78 
  "/>
<polyline clip-path="url(#clip240)" style="stroke:#000000; stroke-width:4; stroke-opacity:1; fill:none" points="
  520.552,1486.45 520.552,1478.78 
  "/>
<polyline clip-path="url(#clip240)" style="stroke:#000000; stroke-width:4; stroke-opacity:1; fill:none" points="
  798.409,1486.45 798.409,1478.78 
  "/>
<polyline clip-path="url(#clip240)" style="stroke:#000000; stroke-width:4; stroke-opacity:1; fill:none" points="
  1076.27,1486.45 1076.27,1478.78 
  "/>
<polyline clip-path="url(#clip240)" style="stroke:#000000; stroke-width:4; stroke-opacity:1; fill:none" points="
  166.205,1468.36 178.043,1468.36 
  "/>
<polyline clip-path="url(#clip240)" style="stroke:#000000; stroke-width:4; stroke-opacity:1; fill:none" points="
  166.205,1354.36 178.043,1354.36 
  "/>
<polyline clip-path="url(#clip240)" style="stroke:#000000; stroke-width:4; stroke-opacity:1; fill:none" points="
  166.205,1240.37 178.043,1240.37 
  "/>
<polyline clip-path="url(#clip240)" style="stroke:#000000; stroke-width:4; stroke-opacity:1; fill:none" points="
  166.205,1126.38 178.043,1126.38 
  "/>
<polyline clip-path="url(#clip240)" style="stroke:#000000; stroke-width:4; stroke-opacity:1; fill:none" points="
  166.205,1012.39 178.043,1012.39 
  "/>
<polyline clip-path="url(#clip240)" style="stroke:#000000; stroke-width:4; stroke-opacity:1; fill:none" points="
  166.205,898.393 178.043,898.393 
  "/>
<path clip-path="url(#clip240)" d="M 0 0 M242.695 1508.44 Q239.084 1508.44 237.255 1512 Q235.45 1515.55 235.45 1522.67 Q235.45 1529.78 237.255 1533.35 Q239.084 1536.89 242.695 1536.89 Q246.33 1536.89 248.135 1533.35 Q249.964 1529.78 249.964 1522.67 Q249.964 1515.55 248.135 1512 Q246.33 1508.44 242.695 1508.44 M242.695 1504.73 Q248.505 1504.73 251.561 1509.34 Q254.64 1513.92 254.64 1522.67 Q254.64 1531.4 251.561 1536.01 Q248.505 1540.59 242.695 1540.59 Q236.885 1540.59 233.806 1536.01 Q230.751 1531.4 230.751 1522.67 Q230.751 1513.92 233.806 1509.34 Q236.885 1504.73 242.695 1504.73 Z" fill="#000000" fill-rule="evenodd" fill-opacity="1" /><path clip-path="url(#clip240)" d="M 0 0 M510.83 1505.36 L529.186 1505.36 L529.186 1509.3 L515.112 1509.3 L515.112 1517.77 Q516.131 1517.42 517.149 1517.26 Q518.168 1517.07 519.186 1517.07 Q524.973 1517.07 528.353 1520.24 Q531.732 1523.42 531.732 1528.83 Q531.732 1534.41 528.26 1537.51 Q524.788 1540.59 518.469 1540.59 Q516.293 1540.59 514.024 1540.22 Q511.779 1539.85 509.371 1539.11 L509.371 1534.41 Q511.455 1535.54 513.677 1536.1 Q515.899 1536.66 518.376 1536.66 Q522.381 1536.66 524.719 1534.55 Q527.057 1532.44 527.057 1528.83 Q527.057 1525.22 524.719 1523.11 Q522.381 1521.01 518.376 1521.01 Q516.501 1521.01 514.626 1521.42 Q512.774 1521.84 510.83 1522.72 L510.83 1505.36 Z" fill="#000000" fill-rule="evenodd" fill-opacity="1" /><path clip-path="url(#clip240)" d="M 0 0 M775.284 1535.98 L782.923 1535.98 L782.923 1509.62 L774.612 1511.29 L774.612 1507.03 L782.876 1505.36 L787.552 1505.36 L787.552 1535.98 L795.191 1535.98 L795.191 1539.92 L775.284 1539.92 L775.284 1535.98 Z" fill="#000000" fill-rule="evenodd" fill-opacity="1" /><path clip-path="url(#clip240)" d="M 0 0 M810.26 1508.44 Q806.649 1508.44 804.821 1512 Q803.015 1515.55 803.015 1522.67 Q803.015 1529.78 804.821 1533.35 Q806.649 1536.89 810.26 1536.89 Q813.895 1536.89 815.7 1533.35 Q817.529 1529.78 817.529 1522.67 Q817.529 1515.55 815.7 1512 Q813.895 1508.44 810.26 1508.44 M810.26 1504.73 Q816.071 1504.73 819.126 1509.34 Q822.205 1513.92 822.205 1522.67 Q822.205 1531.4 819.126 1536.01 Q816.071 1540.59 810.26 1540.59 Q804.45 1540.59 801.372 1536.01 Q798.316 1531.4 798.316 1522.67 Q798.316 1513.92 801.372 1509.34 Q804.45 1504.73 810.26 1504.73 Z" fill="#000000" fill-rule="evenodd" fill-opacity="1" /><path clip-path="url(#clip240)" d="M 0 0 M1053.64 1535.98 L1061.28 1535.98 L1061.28 1509.62 L1052.97 1511.29 L1052.97 1507.03 L1061.23 1505.36 L1065.91 1505.36 L1065.91 1535.98 L1073.55 1535.98 L1073.55 1539.92 L1053.64 1539.92 L1053.64 1535.98 Z" fill="#000000" fill-rule="evenodd" fill-opacity="1" /><path clip-path="url(#clip240)" d="M 0 0 M1078.66 1505.36 L1097.02 1505.36 L1097.02 1509.3 L1082.94 1509.3 L1082.94 1517.77 Q1083.96 1517.42 1084.98 1517.26 Q1086 1517.07 1087.02 1517.07 Q1092.8 1517.07 1096.18 1520.24 Q1099.56 1523.42 1099.56 1528.83 Q1099.56 1534.41 1096.09 1537.51 Q1092.62 1540.59 1086.3 1540.59 Q1084.12 1540.59 1081.86 1540.22 Q1079.61 1539.85 1077.2 1539.11 L1077.2 1534.41 Q1079.29 1535.54 1081.51 1536.1 Q1083.73 1536.66 1086.21 1536.66 Q1090.21 1536.66 1092.55 1534.55 Q1094.89 1532.44 1094.89 1528.83 Q1094.89 1525.22 1092.55 1523.11 Q1090.21 1521.01 1086.21 1521.01 Q1084.33 1521.01 1082.46 1521.42 Q1080.61 1521.84 1078.66 1522.72 L1078.66 1505.36 Z" fill="#000000" fill-rule="evenodd" fill-opacity="1" /><path clip-path="url(#clip240)" d="M 0 0 M130.26 1454.16 Q126.649 1454.16 124.82 1457.72 Q123.015 1461.26 123.015 1468.39 Q123.015 1475.5 124.82 1479.06 Q126.649 1482.6 130.26 1482.6 Q133.895 1482.6 135.7 1479.06 Q137.529 1475.5 137.529 1468.39 Q137.529 1461.26 135.7 1457.72 Q133.895 1454.16 130.26 1454.16 M130.26 1450.45 Q136.07 1450.45 139.126 1455.06 Q142.205 1459.64 142.205 1468.39 Q142.205 1477.12 139.126 1481.73 Q136.07 1486.31 130.26 1486.31 Q124.45 1486.31 121.371 1481.73 Q118.316 1477.12 118.316 1468.39 Q118.316 1459.64 121.371 1455.06 Q124.45 1450.45 130.26 1450.45 Z" fill="#000000" fill-rule="evenodd" fill-opacity="1" /><path clip-path="url(#clip240)" d="M 0 0 M68.2699 1367.71 L75.9087 1367.71 L75.9087 1341.34 L67.5986 1343.01 L67.5986 1338.75 L75.8624 1337.08 L80.5383 1337.08 L80.5383 1367.71 L88.1772 1367.71 L88.1772 1371.64 L68.2699 1371.64 L68.2699 1367.71 Z" fill="#000000" fill-rule="evenodd" fill-opacity="1" /><path clip-path="url(#clip240)" d="M 0 0 M103.247 1340.16 Q99.6354 1340.16 97.8068 1343.73 Q96.0012 1347.27 96.0012 1354.4 Q96.0012 1361.51 97.8068 1365.07 Q99.6354 1368.61 103.247 1368.61 Q106.881 1368.61 108.686 1365.07 Q110.515 1361.51 110.515 1354.4 Q110.515 1347.27 108.686 1343.73 Q106.881 1340.16 103.247 1340.16 M103.247 1336.46 Q109.057 1336.46 112.112 1341.07 Q115.191 1345.65 115.191 1354.4 Q115.191 1363.13 112.112 1367.73 Q109.057 1372.32 103.247 1372.32 Q97.4364 1372.32 94.3577 1367.73 Q91.3022 1363.13 91.3022 1354.4 Q91.3022 1345.65 94.3577 1341.07 Q97.4364 1336.46 103.247 1336.46 Z" fill="#000000" fill-rule="evenodd" fill-opacity="1" /><path clip-path="url(#clip240)" d="M 0 0 M130.26 1340.16 Q126.649 1340.16 124.82 1343.73 Q123.015 1347.27 123.015 1354.4 Q123.015 1361.51 124.82 1365.07 Q126.649 1368.61 130.26 1368.61 Q133.895 1368.61 135.7 1365.07 Q137.529 1361.51 137.529 1354.4 Q137.529 1347.27 135.7 1343.73 Q133.895 1340.16 130.26 1340.16 M130.26 1336.46 Q136.07 1336.46 139.126 1341.07 Q142.205 1345.65 142.205 1354.4 Q142.205 1363.13 139.126 1367.73 Q136.07 1372.32 130.26 1372.32 Q124.45 1372.32 121.371 1367.73 Q118.316 1363.13 118.316 1354.4 Q118.316 1345.65 121.371 1341.07 Q124.45 1336.46 130.26 1336.46 Z" fill="#000000" fill-rule="evenodd" fill-opacity="1" /><path clip-path="url(#clip240)" d="M 0 0 M71.8578 1253.72 L88.1772 1253.72 L88.1772 1257.65 L66.2328 1257.65 L66.2328 1253.72 Q68.8949 1250.96 73.4782 1246.33 Q78.0846 1241.68 79.2652 1240.34 Q81.5105 1237.81 82.3902 1236.08 Q83.2929 1234.32 83.2929 1232.63 Q83.2929 1229.87 81.3485 1228.14 Q79.4272 1226.4 76.3254 1226.4 Q74.1263 1226.4 71.6726 1227.17 Q69.2421 1227.93 66.4643 1229.48 L66.4643 1224.76 Q69.2884 1223.62 71.7421 1223.05 Q74.1958 1222.47 76.2328 1222.47 Q81.6031 1222.47 84.7976 1225.15 Q87.992 1227.84 87.992 1232.33 Q87.992 1234.46 87.1818 1236.38 Q86.3948 1238.28 84.2883 1240.87 Q83.7096 1241.54 80.6078 1244.76 Q77.5059 1247.95 71.8578 1253.72 Z" fill="#000000" fill-rule="evenodd" fill-opacity="1" /><path clip-path="url(#clip240)" d="M 0 0 M103.247 1226.17 Q99.6354 1226.17 97.8068 1229.73 Q96.0012 1233.28 96.0012 1240.41 Q96.0012 1247.51 97.8068 1251.08 Q99.6354 1254.62 103.247 1254.62 Q106.881 1254.62 108.686 1251.08 Q110.515 1247.51 110.515 1240.41 Q110.515 1233.28 108.686 1229.73 Q106.881 1226.17 103.247 1226.17 M103.247 1222.47 Q109.057 1222.47 112.112 1227.07 Q115.191 1231.66 115.191 1240.41 Q115.191 1249.13 112.112 1253.74 Q109.057 1258.32 103.247 1258.32 Q97.4364 1258.32 94.3577 1253.74 Q91.3022 1249.13 91.3022 1240.41 Q91.3022 1231.66 94.3577 1227.07 Q97.4364 1222.47 103.247 1222.47 Z" fill="#000000" fill-rule="evenodd" fill-opacity="1" /><path clip-path="url(#clip240)" d="M 0 0 M130.26 1226.17 Q126.649 1226.17 124.82 1229.73 Q123.015 1233.28 123.015 1240.41 Q123.015 1247.51 124.82 1251.08 Q126.649 1254.62 130.26 1254.62 Q133.895 1254.62 135.7 1251.08 Q137.529 1247.51 137.529 1240.41 Q137.529 1233.28 135.7 1229.73 Q133.895 1226.17 130.26 1226.17 M130.26 1222.47 Q136.07 1222.47 139.126 1227.07 Q142.205 1231.66 142.205 1240.41 Q142.205 1249.13 139.126 1253.74 Q136.07 1258.32 130.26 1258.32 Q124.45 1258.32 121.371 1253.74 Q118.316 1249.13 118.316 1240.41 Q118.316 1231.66 121.371 1227.07 Q124.45 1222.47 130.26 1222.47 Z" fill="#000000" fill-rule="evenodd" fill-opacity="1" /><path clip-path="url(#clip240)" d="M 0 0 M81.0476 1125.02 Q84.404 1125.74 86.279 1128.01 Q88.1772 1130.28 88.1772 1133.61 Q88.1772 1138.73 84.6587 1141.53 Q81.1402 1144.33 74.6587 1144.33 Q72.4828 1144.33 70.168 1143.89 Q67.8764 1143.47 65.4227 1142.62 L65.4227 1138.1 Q67.3671 1139.24 69.6819 1139.82 Q71.9967 1140.39 74.5198 1140.39 Q78.918 1140.39 81.2096 1138.66 Q83.5244 1136.92 83.5244 1133.61 Q83.5244 1130.56 81.3717 1128.84 Q79.242 1127.11 75.4226 1127.11 L71.3949 1127.11 L71.3949 1123.27 L75.6078 1123.27 Q79.0569 1123.27 80.8855 1121.9 Q82.7142 1120.51 82.7142 1117.92 Q82.7142 1115.26 80.8161 1113.84 Q78.9411 1112.41 75.4226 1112.41 Q73.5013 1112.41 71.3023 1112.83 Q69.1032 1113.24 66.4643 1114.12 L66.4643 1109.95 Q69.1264 1109.21 71.4412 1108.84 Q73.7791 1108.47 75.8393 1108.47 Q81.1633 1108.47 84.2652 1110.9 Q87.367 1113.31 87.367 1117.43 Q87.367 1120.3 85.7235 1122.29 Q84.08 1124.26 81.0476 1125.02 Z" fill="#000000" fill-rule="evenodd" fill-opacity="1" /><path clip-path="url(#clip240)" d="M 0 0 M103.247 1112.18 Q99.6354 1112.18 97.8068 1115.74 Q96.0012 1119.28 96.0012 1126.41 Q96.0012 1133.52 97.8068 1137.08 Q99.6354 1140.63 103.247 1140.63 Q106.881 1140.63 108.686 1137.08 Q110.515 1133.52 110.515 1126.41 Q110.515 1119.28 108.686 1115.74 Q106.881 1112.18 103.247 1112.18 M103.247 1108.47 Q109.057 1108.47 112.112 1113.08 Q115.191 1117.66 115.191 1126.41 Q115.191 1135.14 112.112 1139.75 Q109.057 1144.33 103.247 1144.33 Q97.4364 1144.33 94.3577 1139.75 Q91.3022 1135.14 91.3022 1126.41 Q91.3022 1117.66 94.3577 1113.08 Q97.4364 1108.47 103.247 1108.47 Z" fill="#000000" fill-rule="evenodd" fill-opacity="1" /><path clip-path="url(#clip240)" d="M 0 0 M130.26 1112.18 Q126.649 1112.18 124.82 1115.74 Q123.015 1119.28 123.015 1126.41 Q123.015 1133.52 124.82 1137.08 Q126.649 1140.63 130.26 1140.63 Q133.895 1140.63 135.7 1137.08 Q137.529 1133.52 137.529 1126.41 Q137.529 1119.28 135.7 1115.74 Q133.895 1112.18 130.26 1112.18 M130.26 1108.47 Q136.07 1108.47 139.126 1113.08 Q142.205 1117.66 142.205 1126.41 Q142.205 1135.14 139.126 1139.75 Q136.07 1144.33 130.26 1144.33 Q124.45 1144.33 121.371 1139.75 Q118.316 1135.14 118.316 1126.41 Q118.316 1117.66 121.371 1113.08 Q124.45 1108.47 130.26 1108.47 Z" fill="#000000" fill-rule="evenodd" fill-opacity="1" /><path clip-path="url(#clip240)" d="M 0 0 M78.5939 999.18 L66.7884 1017.63 L78.5939 1017.63 L78.5939 999.18 M77.367 995.106 L83.2466 995.106 L83.2466 1017.63 L88.1772 1017.63 L88.1772 1021.52 L83.2466 1021.52 L83.2466 1029.67 L78.5939 1029.67 L78.5939 1021.52 L62.9921 1021.52 L62.9921 1017 L77.367 995.106 Z" fill="#000000" fill-rule="evenodd" fill-opacity="1" /><path clip-path="url(#clip240)" d="M 0 0 M103.247 998.184 Q99.6354 998.184 97.8068 1001.75 Q96.0012 1005.29 96.0012 1012.42 Q96.0012 1019.53 97.8068 1023.09 Q99.6354 1026.63 103.247 1026.63 Q106.881 1026.63 108.686 1023.09 Q110.515 1019.53 110.515 1012.42 Q110.515 1005.29 108.686 1001.75 Q106.881 998.184 103.247 998.184 M103.247 994.481 Q109.057 994.481 112.112 999.087 Q115.191 1003.67 115.191 1012.42 Q115.191 1021.15 112.112 1025.75 Q109.057 1030.34 103.247 1030.34 Q97.4364 1030.34 94.3577 1025.75 Q91.3022 1021.15 91.3022 1012.42 Q91.3022 1003.67 94.3577 999.087 Q97.4364 994.481 103.247 994.481 Z" fill="#000000" fill-rule="evenodd" fill-opacity="1" /><path clip-path="url(#clip240)" d="M 0 0 M130.26 998.184 Q126.649 998.184 124.82 1001.75 Q123.015 1005.29 123.015 1012.42 Q123.015 1019.53 124.82 1023.09 Q126.649 1026.63 130.26 1026.63 Q133.895 1026.63 135.7 1023.09 Q137.529 1019.53 137.529 1012.42 Q137.529 1005.29 135.7 1001.75 Q133.895 998.184 130.26 998.184 M130.26 994.481 Q136.07 994.481 139.126 999.087 Q142.205 1003.67 142.205 1012.42 Q142.205 1021.15 139.126 1025.75 Q136.07 1030.34 130.26 1030.34 Q124.45 1030.34 121.371 1025.75 Q118.316 1021.15 118.316 1012.42 Q118.316 1003.67 121.371 999.087 Q124.45 994.481 130.26 994.481 Z" fill="#000000" fill-rule="evenodd" fill-opacity="1" /><path clip-path="url(#clip240)" d="M 0 0 M67.2745 881.113 L85.6309 881.113 L85.6309 885.048 L71.5569 885.048 L71.5569 893.52 Q72.5754 893.173 73.5939 893.011 Q74.6124 892.826 75.6309 892.826 Q81.418 892.826 84.7976 895.997 Q88.1772 899.168 88.1772 904.585 Q88.1772 910.163 84.705 913.265 Q81.2328 916.344 74.9134 916.344 Q72.7374 916.344 70.4689 915.974 Q68.2236 915.603 65.8162 914.863 L65.8162 910.163 Q67.8995 911.298 70.1217 911.853 Q72.3439 912.409 74.8208 912.409 Q78.8254 912.409 81.1633 910.302 Q83.5013 908.196 83.5013 904.585 Q83.5013 900.974 81.1633 898.867 Q78.8254 896.761 74.8208 896.761 Q72.9458 896.761 71.0708 897.177 Q69.2189 897.594 67.2745 898.474 L67.2745 881.113 Z" fill="#000000" fill-rule="evenodd" fill-opacity="1" /><path clip-path="url(#clip240)" d="M 0 0 M103.247 884.191 Q99.6354 884.191 97.8068 887.756 Q96.0012 891.298 96.0012 898.427 Q96.0012 905.534 97.8068 909.099 Q99.6354 912.64 103.247 912.64 Q106.881 912.64 108.686 909.099 Q110.515 905.534 110.515 898.427 Q110.515 891.298 108.686 887.756 Q106.881 884.191 103.247 884.191 M103.247 880.488 Q109.057 880.488 112.112 885.094 Q115.191 889.677 115.191 898.427 Q115.191 907.154 112.112 911.761 Q109.057 916.344 103.247 916.344 Q97.4364 916.344 94.3577 911.761 Q91.3022 907.154 91.3022 898.427 Q91.3022 889.677 94.3577 885.094 Q97.4364 880.488 103.247 880.488 Z" fill="#000000" fill-rule="evenodd" fill-opacity="1" /><path clip-path="url(#clip240)" d="M 0 0 M130.26 884.191 Q126.649 884.191 124.82 887.756 Q123.015 891.298 123.015 898.427 Q123.015 905.534 124.82 909.099 Q126.649 912.64 130.26 912.64 Q133.895 912.64 135.7 909.099 Q137.529 905.534 137.529 898.427 Q137.529 891.298 135.7 887.756 Q133.895 884.191 130.26 884.191 M130.26 880.488 Q136.07 880.488 139.126 885.094 Q142.205 889.677 142.205 898.427 Q142.205 907.154 139.126 911.761 Q136.07 916.344 130.26 916.344 Q124.45 916.344 121.371 911.761 Q118.316 907.154 118.316 898.427 Q118.316 889.677 121.371 885.094 Q124.45 880.488 130.26 880.488 Z" fill="#000000" fill-rule="evenodd" fill-opacity="1" /><path clip-path="url(#clip244)" d="
M220.467 865.335 L220.467 1468.36 L264.924 1468.36 L264.924 865.335 L220.467 865.335 L220.467 865.335  Z
  " fill="#009af9" fill-rule="evenodd" fill-opacity="1"/>
<polyline clip-path="url(#clip244)" style="stroke:#000000; stroke-width:4; stroke-opacity:1; fill:none" points="
  220.467,865.335 220.467,1468.36 264.924,1468.36 264.924,865.335 220.467,865.335 
  "/>
<path clip-path="url(#clip244)" d="
M276.038 1468.36 L276.038 1468.36 L320.495 1468.36 L320.495 1468.36 L276.038 1468.36 L276.038 1468.36  Z
  " fill="#009af9" fill-rule="evenodd" fill-opacity="1"/>
<polyline clip-path="url(#clip244)" style="stroke:#000000; stroke-width:4; stroke-opacity:1; fill:none" points="
  276.038,1468.36 276.038,1468.36 320.495,1468.36 276.038,1468.36 
  "/>
<path clip-path="url(#clip244)" d="
M331.609 1468.36 L331.609 1468.36 L376.066 1468.36 L376.066 1468.36 L331.609 1468.36 L331.609 1468.36  Z
  " fill="#009af9" fill-rule="evenodd" fill-opacity="1"/>
<polyline clip-path="url(#clip244)" style="stroke:#000000; stroke-width:4; stroke-opacity:1; fill:none" points="
  331.609,1468.36 331.609,1468.36 376.066,1468.36 331.609,1468.36 
  "/>
<path clip-path="url(#clip244)" d="
M387.181 1468.36 L387.181 1468.36 L431.638 1468.36 L431.638 1468.36 L387.181 1468.36 L387.181 1468.36  Z
  " fill="#009af9" fill-rule="evenodd" fill-opacity="1"/>
<polyline clip-path="url(#clip244)" style="stroke:#000000; stroke-width:4; stroke-opacity:1; fill:none" points="
  387.181,1468.36 387.181,1468.36 431.638,1468.36 387.181,1468.36 
  "/>
<path clip-path="url(#clip244)" d="
M442.752 1468.36 L442.752 1468.36 L487.209 1468.36 L487.209 1468.36 L442.752 1468.36 L442.752 1468.36  Z
  " fill="#009af9" fill-rule="evenodd" fill-opacity="1"/>
<polyline clip-path="url(#clip244)" style="stroke:#000000; stroke-width:4; stroke-opacity:1; fill:none" points="
  442.752,1468.36 442.752,1468.36 487.209,1468.36 442.752,1468.36 
  "/>
<path clip-path="url(#clip244)" d="
M498.323 1468.36 L498.323 1468.36 L542.78 1468.36 L542.78 1468.36 L498.323 1468.36 L498.323 1468.36  Z
  " fill="#009af9" fill-rule="evenodd" fill-opacity="1"/>
<polyline clip-path="url(#clip244)" style="stroke:#000000; stroke-width:4; stroke-opacity:1; fill:none" points="
  498.323,1468.36 498.323,1468.36 542.78,1468.36 498.323,1468.36 
  "/>
<path clip-path="url(#clip244)" d="
M553.895 1468.36 L553.895 1468.36 L598.352 1468.36 L598.352 1468.36 L553.895 1468.36 L553.895 1468.36  Z
  " fill="#009af9" fill-rule="evenodd" fill-opacity="1"/>
<polyline clip-path="url(#clip244)" style="stroke:#000000; stroke-width:4; stroke-opacity:1; fill:none" points="
  553.895,1468.36 553.895,1468.36 598.352,1468.36 553.895,1468.36 
  "/>
<path clip-path="url(#clip244)" d="
M609.466 1468.36 L609.466 1468.36 L653.923 1468.36 L653.923 1468.36 L609.466 1468.36 L609.466 1468.36  Z
  " fill="#009af9" fill-rule="evenodd" fill-opacity="1"/>
<polyline clip-path="url(#clip244)" style="stroke:#000000; stroke-width:4; stroke-opacity:1; fill:none" points="
  609.466,1468.36 609.466,1468.36 653.923,1468.36 609.466,1468.36 
  "/>
<path clip-path="url(#clip244)" d="
M665.037 1468.36 L665.037 1468.36 L709.494 1468.36 L709.494 1468.36 L665.037 1468.36 L665.037 1468.36  Z
  " fill="#009af9" fill-rule="evenodd" fill-opacity="1"/>
<polyline clip-path="url(#clip244)" style="stroke:#000000; stroke-width:4; stroke-opacity:1; fill:none" points="
  665.037,1468.36 665.037,1468.36 709.494,1468.36 665.037,1468.36 
  "/>
<path clip-path="url(#clip244)" d="
M720.609 1468.36 L720.609 1468.36 L765.066 1468.36 L765.066 1468.36 L720.609 1468.36 L720.609 1468.36  Z
  " fill="#009af9" fill-rule="evenodd" fill-opacity="1"/>
<polyline clip-path="url(#clip244)" style="stroke:#000000; stroke-width:4; stroke-opacity:1; fill:none" points="
  720.609,1468.36 720.609,1468.36 765.066,1468.36 720.609,1468.36 
  "/>
<path clip-path="url(#clip244)" d="
M776.18 1468.36 L776.18 1468.36 L820.637 1468.36 L820.637 1468.36 L776.18 1468.36 L776.18 1468.36  Z
  " fill="#009af9" fill-rule="evenodd" fill-opacity="1"/>
<polyline clip-path="url(#clip244)" style="stroke:#000000; stroke-width:4; stroke-opacity:1; fill:none" points="
  776.18,1468.36 776.18,1468.36 820.637,1468.36 776.18,1468.36 
  "/>
<path clip-path="url(#clip244)" d="
M831.751 1468.36 L831.751 1468.36 L876.208 1468.36 L876.208 1468.36 L831.751 1468.36 L831.751 1468.36  Z
  " fill="#009af9" fill-rule="evenodd" fill-opacity="1"/>
<polyline clip-path="url(#clip244)" style="stroke:#000000; stroke-width:4; stroke-opacity:1; fill:none" points="
  831.751,1468.36 831.751,1468.36 876.208,1468.36 831.751,1468.36 
  "/>
<path clip-path="url(#clip244)" d="
M887.323 1468.36 L887.323 1468.36 L931.78 1468.36 L931.78 1468.36 L887.323 1468.36 L887.323 1468.36  Z
  " fill="#009af9" fill-rule="evenodd" fill-opacity="1"/>
<polyline clip-path="url(#clip244)" style="stroke:#000000; stroke-width:4; stroke-opacity:1; fill:none" points="
  887.323,1468.36 887.323,1468.36 931.78,1468.36 887.323,1468.36 
  "/>
<path clip-path="url(#clip244)" d="
M942.894 1468.36 L942.894 1468.36 L987.351 1468.36 L987.351 1468.36 L942.894 1468.36 L942.894 1468.36  Z
  " fill="#009af9" fill-rule="evenodd" fill-opacity="1"/>
<polyline clip-path="url(#clip244)" style="stroke:#000000; stroke-width:4; stroke-opacity:1; fill:none" points="
  942.894,1468.36 942.894,1468.36 987.351,1468.36 942.894,1468.36 
  "/>
<path clip-path="url(#clip244)" d="
M998.465 1468.36 L998.465 1468.36 L1042.92 1468.36 L1042.92 1468.36 L998.465 1468.36 L998.465 1468.36  Z
  " fill="#009af9" fill-rule="evenodd" fill-opacity="1"/>
<polyline clip-path="url(#clip244)" style="stroke:#000000; stroke-width:4; stroke-opacity:1; fill:none" points="
  998.465,1468.36 998.465,1468.36 1042.92,1468.36 998.465,1468.36 
  "/>
<path clip-path="url(#clip244)" d="
M1054.04 931.451 L1054.04 1468.36 L1098.49 1468.36 L1098.49 931.451 L1054.04 931.451 L1054.04 931.451  Z
  " fill="#009af9" fill-rule="evenodd" fill-opacity="1"/>
<polyline clip-path="url(#clip244)" style="stroke:#000000; stroke-width:4; stroke-opacity:1; fill:none" points="
  1054.04,931.451 1054.04,1468.36 1098.49,1468.36 1098.49,931.451 1054.04,931.451 
  "/>
</svg>
