<?xml version="1.0" encoding="utf-8"?>
<svg xmlns="http://www.w3.org/2000/svg" xmlns:xlink="http://www.w3.org/1999/xlink" width="600" height="400" viewBox="0 0 2400 1600">
<defs>
  <clipPath id="clip710">
    <rect x="0" y="0" width="2400" height="1600"/>
  </clipPath>
</defs>
<path clip-path="url(#clip710)" d="
M0 1600 L2400 1600 L2400 0 L0 0  Z
  " fill="#ffffff" fill-rule="evenodd" fill-opacity="1"/>
<defs>
  <clipPath id="clip711">
    <rect x="480" y="0" width="1681" height="1600"/>
  </clipPath>
</defs>
<path clip-path="url(#clip710)" d="
M166.205 686.448 L1152.76 686.448 L1152.76 47.2441 L166.205 47.2441  Z
  " fill="#ffffff" fill-rule="evenodd" fill-opacity="1"/>
<defs>
  <clipPath id="clip712">
    <rect x="166" y="47" width="988" height="640"/>
  </clipPath>
</defs>
<polyline clip-path="url(#clip712)" style="stroke:#000000; stroke-width:2; stroke-opacity:0.1; fill:none" points="
  312.891,686.448 312.891,47.2441 
  "/>
<polyline clip-path="url(#clip712)" style="stroke:#000000; stroke-width:2; stroke-opacity:0.1; fill:none" points="
  543.95,686.448 543.95,47.2441 
  "/>
<polyline clip-path="url(#clip712)" style="stroke:#000000; stroke-width:2; stroke-opacity:0.1; fill:none" points="
  775.01,686.448 775.01,47.2441 
  "/>
<polyline clip-path="url(#clip712)" style="stroke:#000000; stroke-width:2; stroke-opacity:0.1; fill:none" points="
  1006.07,686.448 1006.07,47.2441 
  "/>
<polyline clip-path="url(#clip712)" style="stroke:#000000; stroke-width:2; stroke-opacity:0.1; fill:none" points="
  166.205,668.357 1152.76,668.357 
  "/>
<polyline clip-path="url(#clip712)" style="stroke:#000000; stroke-width:2; stroke-opacity:0.1; fill:none" points="
  166.205,551.492 1152.76,551.492 
  "/>
<polyline clip-path="url(#clip712)" style="stroke:#000000; stroke-width:2; stroke-opacity:0.1; fill:none" points="
  166.205,434.628 1152.76,434.628 
  "/>
<polyline clip-path="url(#clip712)" style="stroke:#000000; stroke-width:2; stroke-opacity:0.1; fill:none" points="
  166.205,317.763 1152.76,317.763 
  "/>
<polyline clip-path="url(#clip712)" style="stroke:#000000; stroke-width:2; stroke-opacity:0.1; fill:none" points="
  166.205,200.898 1152.76,200.898 
  "/>
<polyline clip-path="url(#clip712)" style="stroke:#000000; stroke-width:2; stroke-opacity:0.1; fill:none" points="
  166.205,84.0331 1152.76,84.0331 
  "/>
<polyline clip-path="url(#clip710)" style="stroke:#000000; stroke-width:4; stroke-opacity:1; fill:none" points="
  166.205,686.448 1152.76,686.448 
  "/>
<polyline clip-path="url(#clip710)" style="stroke:#000000; stroke-width:4; stroke-opacity:1; fill:none" points="
  166.205,686.448 166.205,47.2441 
  "/>
<polyline clip-path="url(#clip710)" style="stroke:#000000; stroke-width:4; stroke-opacity:1; fill:none" points="
  312.891,686.448 312.891,678.777 
  "/>
<polyline clip-path="url(#clip710)" style="stroke:#000000; stroke-width:4; stroke-opacity:1; fill:none" points="
  543.95,686.448 543.95,678.777 
  "/>
<polyline clip-path="url(#clip710)" style="stroke:#000000; stroke-width:4; stroke-opacity:1; fill:none" points="
  775.01,686.448 775.01,678.777 
  "/>
<polyline clip-path="url(#clip710)" style="stroke:#000000; stroke-width:4; stroke-opacity:1; fill:none" points="
  1006.07,686.448 1006.07,678.777 
  "/>
<polyline clip-path="url(#clip710)" style="stroke:#000000; stroke-width:4; stroke-opacity:1; fill:none" points="
  166.205,668.357 178.043,668.357 
  "/>
<polyline clip-path="url(#clip710)" style="stroke:#000000; stroke-width:4; stroke-opacity:1; fill:none" points="
  166.205,551.492 178.043,551.492 
  "/>
<polyline clip-path="url(#clip710)" style="stroke:#000000; stroke-width:4; stroke-opacity:1; fill:none" points="
  166.205,434.628 178.043,434.628 
  "/>
<polyline clip-path="url(#clip710)" style="stroke:#000000; stroke-width:4; stroke-opacity:1; fill:none" points="
  166.205,317.763 178.043,317.763 
  "/>
<polyline clip-path="url(#clip710)" style="stroke:#000000; stroke-width:4; stroke-opacity:1; fill:none" points="
  166.205,200.898 178.043,200.898 
  "/>
<polyline clip-path="url(#clip710)" style="stroke:#000000; stroke-width:4; stroke-opacity:1; fill:none" points="
  166.205,84.0331 178.043,84.0331 
  "/>
<path clip-path="url(#clip710)" d="M 0 0 M312.891 708.439 Q309.28 708.439 307.451 712.003 Q305.645 715.545 305.645 722.675 Q305.645 729.781 307.451 733.346 Q309.28 736.887 312.891 736.887 Q316.525 736.887 318.33 733.346 Q320.159 729.781 320.159 722.675 Q320.159 715.545 318.33 712.003 Q316.525 708.439 312.891 708.439 M312.891 704.735 Q318.701 704.735 321.756 709.341 Q324.835 713.925 324.835 722.675 Q324.835 731.401 321.756 736.008 Q318.701 740.591 312.891 740.591 Q307.08 740.591 304.002 736.008 Q300.946 731.401 300.946 722.675 Q300.946 713.925 304.002 709.341 Q307.08 704.735 312.891 704.735 Z" fill="#000000" fill-rule="evenodd" fill-opacity="1" /><path clip-path="url(#clip710)" d="M 0 0 M534.332 735.985 L541.971 735.985 L541.971 709.619 L533.661 711.286 L533.661 707.027 L541.925 705.36 L546.601 705.36 L546.601 735.985 L554.24 735.985 L554.24 739.92 L534.332 739.92 L534.332 735.985 Z" fill="#000000" fill-rule="evenodd" fill-opacity="1" /><path clip-path="url(#clip710)" d="M 0 0 M769.663 735.985 L785.982 735.985 L785.982 739.92 L764.038 739.92 L764.038 735.985 Q766.7 733.23 771.283 728.6 Q775.89 723.948 777.07 722.605 Q779.316 720.082 780.195 718.346 Q781.098 716.587 781.098 714.897 Q781.098 712.142 779.154 710.406 Q777.232 708.67 774.131 708.67 Q771.931 708.67 769.478 709.434 Q767.047 710.198 764.269 711.749 L764.269 707.027 Q767.094 705.892 769.547 705.314 Q772.001 704.735 774.038 704.735 Q779.408 704.735 782.603 707.42 Q785.797 710.105 785.797 714.596 Q785.797 716.726 784.987 718.647 Q784.2 720.545 782.093 723.138 Q781.515 723.809 778.413 727.026 Q775.311 730.221 769.663 735.985 Z" fill="#000000" fill-rule="evenodd" fill-opacity="1" /><path clip-path="url(#clip710)" d="M 0 0 M1010.32 721.286 Q1013.67 722.003 1015.55 724.272 Q1017.45 726.54 1017.45 729.874 Q1017.45 734.989 1013.93 737.79 Q1010.41 740.591 1003.93 740.591 Q1001.75 740.591 999.438 740.151 Q997.146 739.735 994.693 738.878 L994.693 734.364 Q996.637 735.499 998.952 736.077 Q1001.27 736.656 1003.79 736.656 Q1008.19 736.656 1010.48 734.92 Q1012.79 733.184 1012.79 729.874 Q1012.79 726.818 1010.64 725.105 Q1008.51 723.369 1004.69 723.369 L1000.66 723.369 L1000.66 719.526 L1004.88 719.526 Q1008.33 719.526 1010.16 718.161 Q1011.98 716.772 1011.98 714.179 Q1011.98 711.517 1010.09 710.105 Q1008.21 708.67 1004.69 708.67 Q1002.77 708.67 1000.57 709.087 Q998.373 709.503 995.734 710.383 L995.734 706.216 Q998.396 705.476 1000.71 705.105 Q1003.05 704.735 1005.11 704.735 Q1010.43 704.735 1013.54 707.165 Q1016.64 709.573 1016.64 713.693 Q1016.64 716.564 1014.99 718.554 Q1013.35 720.522 1010.32 721.286 Z" fill="#000000" fill-rule="evenodd" fill-opacity="1" /><path clip-path="url(#clip710)" d="M 0 0 M130.26 654.156 Q126.649 654.156 124.82 657.721 Q123.015 661.262 123.015 668.392 Q123.015 675.498 124.82 679.063 Q126.649 682.605 130.26 682.605 Q133.895 682.605 135.7 679.063 Q137.529 675.498 137.529 668.392 Q137.529 661.262 135.7 657.721 Q133.895 654.156 130.26 654.156 M130.26 650.452 Q136.07 650.452 139.126 655.059 Q142.205 659.642 142.205 668.392 Q142.205 677.119 139.126 681.725 Q136.07 686.308 130.26 686.308 Q124.45 686.308 121.371 681.725 Q118.316 677.119 118.316 668.392 Q118.316 659.642 121.371 655.059 Q124.45 650.452 130.26 650.452 Z" fill="#000000" fill-rule="evenodd" fill-opacity="1" /><path clip-path="url(#clip710)" d="M 0 0 M68.2699 564.837 L75.9087 564.837 L75.9087 538.472 L67.5986 540.138 L67.5986 535.879 L75.8624 534.212 L80.5383 534.212 L80.5383 564.837 L88.1772 564.837 L88.1772 568.772 L68.2699 568.772 L68.2699 564.837 Z" fill="#000000" fill-rule="evenodd" fill-opacity="1" /><path clip-path="url(#clip710)" d="M 0 0 M103.247 537.291 Q99.6354 537.291 97.8068 540.856 Q96.0012 544.398 96.0012 551.527 Q96.0012 558.634 97.8068 562.198 Q99.6354 565.74 103.247 565.74 Q106.881 565.74 108.686 562.198 Q110.515 558.634 110.515 551.527 Q110.515 544.398 108.686 540.856 Q106.881 537.291 103.247 537.291 M103.247 533.587 Q109.057 533.587 112.112 538.194 Q115.191 542.777 115.191 551.527 Q115.191 560.254 112.112 564.86 Q109.057 569.444 103.247 569.444 Q97.4364 569.444 94.3577 564.86 Q91.3022 560.254 91.3022 551.527 Q91.3022 542.777 94.3577 538.194 Q97.4364 533.587 103.247 533.587 Z" fill="#000000" fill-rule="evenodd" fill-opacity="1" /><path clip-path="url(#clip710)" d="M 0 0 M130.26 537.291 Q126.649 537.291 124.82 540.856 Q123.015 544.398 123.015 551.527 Q123.015 558.634 124.82 562.198 Q126.649 565.74 130.26 565.74 Q133.895 565.74 135.7 562.198 Q137.529 558.634 137.529 551.527 Q137.529 544.398 135.7 540.856 Q133.895 537.291 130.26 537.291 M130.26 533.587 Q136.07 533.587 139.126 538.194 Q142.205 542.777 142.205 551.527 Q142.205 560.254 139.126 564.86 Q136.07 569.444 130.26 569.444 Q124.45 569.444 121.371 564.86 Q118.316 560.254 118.316 551.527 Q118.316 542.777 121.371 538.194 Q124.45 533.587 130.26 533.587 Z" fill="#000000" fill-rule="evenodd" fill-opacity="1" /><path clip-path="url(#clip710)" d="M 0 0 M71.8578 447.972 L88.1772 447.972 L88.1772 451.908 L66.2328 451.908 L66.2328 447.972 Q68.8949 445.218 73.4782 440.588 Q78.0846 435.935 79.2652 434.593 Q81.5105 432.07 82.3902 430.334 Q83.2929 428.574 83.2929 426.885 Q83.2929 424.13 81.3485 422.394 Q79.4272 420.658 76.3254 420.658 Q74.1263 420.658 71.6726 421.422 Q69.2421 422.186 66.4643 423.736 L66.4643 419.014 Q69.2884 417.88 71.7421 417.301 Q74.1958 416.723 76.2328 416.723 Q81.6031 416.723 84.7976 419.408 Q87.992 422.093 87.992 426.584 Q87.992 428.713 87.1818 430.635 Q86.3948 432.533 84.2883 435.125 Q83.7096 435.797 80.6078 439.014 Q77.5059 442.209 71.8578 447.972 Z" fill="#000000" fill-rule="evenodd" fill-opacity="1" /><path clip-path="url(#clip710)" d="M 0 0 M103.247 420.426 Q99.6354 420.426 97.8068 423.991 Q96.0012 427.533 96.0012 434.662 Q96.0012 441.769 97.8068 445.334 Q99.6354 448.875 103.247 448.875 Q106.881 448.875 108.686 445.334 Q110.515 441.769 110.515 434.662 Q110.515 427.533 108.686 423.991 Q106.881 420.426 103.247 420.426 M103.247 416.723 Q109.057 416.723 112.112 421.329 Q115.191 425.912 115.191 434.662 Q115.191 443.389 112.112 447.996 Q109.057 452.579 103.247 452.579 Q97.4364 452.579 94.3577 447.996 Q91.3022 443.389 91.3022 434.662 Q91.3022 425.912 94.3577 421.329 Q97.4364 416.723 103.247 416.723 Z" fill="#000000" fill-rule="evenodd" fill-opacity="1" /><path clip-path="url(#clip710)" d="M 0 0 M130.26 420.426 Q126.649 420.426 124.82 423.991 Q123.015 427.533 123.015 434.662 Q123.015 441.769 124.82 445.334 Q126.649 448.875 130.26 448.875 Q133.895 448.875 135.7 445.334 Q137.529 441.769 137.529 434.662 Q137.529 427.533 135.7 423.991 Q133.895 420.426 130.26 420.426 M130.26 416.723 Q136.07 416.723 139.126 421.329 Q142.205 425.912 142.205 434.662 Q142.205 443.389 139.126 447.996 Q136.07 452.579 130.26 452.579 Q124.45 452.579 121.371 447.996 Q118.316 443.389 118.316 434.662 Q118.316 425.912 121.371 421.329 Q124.45 416.723 130.26 416.723 Z" fill="#000000" fill-rule="evenodd" fill-opacity="1" /><path clip-path="url(#clip710)" d="M 0 0 M81.0476 316.409 Q84.404 317.126 86.279 319.395 Q88.1772 321.663 88.1772 324.997 Q88.1772 330.112 84.6587 332.913 Q81.1402 335.714 74.6587 335.714 Q72.4828 335.714 70.168 335.274 Q67.8764 334.858 65.4227 334.001 L65.4227 329.487 Q67.3671 330.621 69.6819 331.2 Q71.9967 331.779 74.5198 331.779 Q78.918 331.779 81.2096 330.043 Q83.5244 328.307 83.5244 324.997 Q83.5244 321.941 81.3717 320.228 Q79.242 318.492 75.4226 318.492 L71.3949 318.492 L71.3949 314.649 L75.6078 314.649 Q79.0569 314.649 80.8855 313.284 Q82.7142 311.895 82.7142 309.302 Q82.7142 306.64 80.8161 305.228 Q78.9411 303.793 75.4226 303.793 Q73.5013 303.793 71.3023 304.21 Q69.1032 304.626 66.4643 305.506 L66.4643 301.339 Q69.1264 300.599 71.4412 300.228 Q73.7791 299.858 75.8393 299.858 Q81.1633 299.858 84.2652 302.288 Q87.367 304.696 87.367 308.816 Q87.367 311.686 85.7235 313.677 Q84.08 315.645 81.0476 316.409 Z" fill="#000000" fill-rule="evenodd" fill-opacity="1" /><path clip-path="url(#clip710)" d="M 0 0 M103.247 303.561 Q99.6354 303.561 97.8068 307.126 Q96.0012 310.668 96.0012 317.797 Q96.0012 324.904 97.8068 328.469 Q99.6354 332.01 103.247 332.01 Q106.881 332.01 108.686 328.469 Q110.515 324.904 110.515 317.797 Q110.515 310.668 108.686 307.126 Q106.881 303.561 103.247 303.561 M103.247 299.858 Q109.057 299.858 112.112 304.464 Q115.191 309.048 115.191 317.797 Q115.191 326.524 112.112 331.131 Q109.057 335.714 103.247 335.714 Q97.4364 335.714 94.3577 331.131 Q91.3022 326.524 91.3022 317.797 Q91.3022 309.048 94.3577 304.464 Q97.4364 299.858 103.247 299.858 Z" fill="#000000" fill-rule="evenodd" fill-opacity="1" /><path clip-path="url(#clip710)" d="M 0 0 M130.26 303.561 Q126.649 303.561 124.82 307.126 Q123.015 310.668 123.015 317.797 Q123.015 324.904 124.82 328.469 Q126.649 332.01 130.26 332.01 Q133.895 332.01 135.7 328.469 Q137.529 324.904 137.529 317.797 Q137.529 310.668 135.7 307.126 Q133.895 303.561 130.26 303.561 M130.26 299.858 Q136.07 299.858 139.126 304.464 Q142.205 309.048 142.205 317.797 Q142.205 326.524 139.126 331.131 Q136.07 335.714 130.26 335.714 Q124.45 335.714 121.371 331.131 Q118.316 326.524 118.316 317.797 Q118.316 309.048 121.371 304.464 Q124.45 299.858 130.26 299.858 Z" fill="#000000" fill-rule="evenodd" fill-opacity="1" /><path clip-path="url(#clip710)" d="M 0 0 M78.5939 187.692 L66.7884 206.141 L78.5939 206.141 L78.5939 187.692 M77.367 183.618 L83.2466 183.618 L83.2466 206.141 L88.1772 206.141 L88.1772 210.03 L83.2466 210.03 L83.2466 218.178 L78.5939 218.178 L78.5939 210.03 L62.9921 210.03 L62.9921 205.516 L77.367 183.618 Z" fill="#000000" fill-rule="evenodd" fill-opacity="1" /><path clip-path="url(#clip710)" d="M 0 0 M103.247 186.697 Q99.6354 186.697 97.8068 190.261 Q96.0012 193.803 96.0012 200.933 Q96.0012 208.039 97.8068 211.604 Q99.6354 215.146 103.247 215.146 Q106.881 215.146 108.686 211.604 Q110.515 208.039 110.515 200.933 Q110.515 193.803 108.686 190.261 Q106.881 186.697 103.247 186.697 M103.247 182.993 Q109.057 182.993 112.112 187.599 Q115.191 192.183 115.191 200.933 Q115.191 209.659 112.112 214.266 Q109.057 218.849 103.247 218.849 Q97.4364 218.849 94.3577 214.266 Q91.3022 209.659 91.3022 200.933 Q91.3022 192.183 94.3577 187.599 Q97.4364 182.993 103.247 182.993 Z" fill="#000000" fill-rule="evenodd" fill-opacity="1" /><path clip-path="url(#clip710)" d="M 0 0 M130.26 186.697 Q126.649 186.697 124.82 190.261 Q123.015 193.803 123.015 200.933 Q123.015 208.039 124.82 211.604 Q126.649 215.146 130.26 215.146 Q133.895 215.146 135.7 211.604 Q137.529 208.039 137.529 200.933 Q137.529 193.803 135.7 190.261 Q133.895 186.697 130.26 186.697 M130.26 182.993 Q136.07 182.993 139.126 187.599 Q142.205 192.183 142.205 200.933 Q142.205 209.659 139.126 214.266 Q136.07 218.849 130.26 218.849 Q124.45 218.849 121.371 214.266 Q118.316 209.659 118.316 200.933 Q118.316 192.183 121.371 187.599 Q124.45 182.993 130.26 182.993 Z" fill="#000000" fill-rule="evenodd" fill-opacity="1" /><path clip-path="url(#clip710)" d="M 0 0 M67.2745 66.7531 L85.6309 66.7531 L85.6309 70.6883 L71.5569 70.6883 L71.5569 79.1605 Q72.5754 78.8133 73.5939 78.6512 Q74.6124 78.466 75.6309 78.466 Q81.418 78.466 84.7976 81.6373 Q88.1772 84.8086 88.1772 90.2252 Q88.1772 95.8039 84.705 98.9057 Q81.2328 101.984 74.9134 101.984 Q72.7374 101.984 70.4689 101.614 Q68.2236 101.244 65.8162 100.503 L65.8162 95.8039 Q67.8995 96.9382 70.1217 97.4937 Q72.3439 98.0493 74.8208 98.0493 Q78.8254 98.0493 81.1633 95.9428 Q83.5013 93.8363 83.5013 90.2252 Q83.5013 86.6141 81.1633 84.5077 Q78.8254 82.4012 74.8208 82.4012 Q72.9458 82.4012 71.0708 82.8179 Q69.2189 83.2345 67.2745 84.1142 L67.2745 66.7531 Z" fill="#000000" fill-rule="evenodd" fill-opacity="1" /><path clip-path="url(#clip710)" d="M 0 0 M103.247 69.8318 Q99.6354 69.8318 97.8068 73.3966 Q96.0012 76.9383 96.0012 84.0679 Q96.0012 91.1743 97.8068 94.7391 Q99.6354 98.2807 103.247 98.2807 Q106.881 98.2807 108.686 94.7391 Q110.515 91.1743 110.515 84.0679 Q110.515 76.9383 108.686 73.3966 Q106.881 69.8318 103.247 69.8318 M103.247 66.1281 Q109.057 66.1281 112.112 70.7346 Q115.191 75.3179 115.191 84.0679 Q115.191 92.7947 112.112 97.4011 Q109.057 101.984 103.247 101.984 Q97.4364 101.984 94.3577 97.4011 Q91.3022 92.7947 91.3022 84.0679 Q91.3022 75.3179 94.3577 70.7346 Q97.4364 66.1281 103.247 66.1281 Z" fill="#000000" fill-rule="evenodd" fill-opacity="1" /><path clip-path="url(#clip710)" d="M 0 0 M130.26 69.8318 Q126.649 69.8318 124.82 73.3966 Q123.015 76.9383 123.015 84.0679 Q123.015 91.1743 124.82 94.7391 Q126.649 98.2807 130.26 98.2807 Q133.895 98.2807 135.7 94.7391 Q137.529 91.1743 137.529 84.0679 Q137.529 76.9383 135.7 73.3966 Q133.895 69.8318 130.26 69.8318 M130.26 66.1281 Q136.07 66.1281 139.126 70.7346 Q142.205 75.3179 142.205 84.0679 Q142.205 92.7947 139.126 97.4011 Q136.07 101.984 130.26 101.984 Q124.45 101.984 121.371 97.4011 Q118.316 92.7947 118.316 84.0679 Q118.316 75.3179 121.371 70.7346 Q124.45 66.1281 130.26 66.1281 Z" fill="#000000" fill-rule="evenodd" fill-opacity="1" /><path clip-path="url(#clip712)" d="
M220.467 65.3348 L220.467 668.357 L405.315 668.357 L405.315 65.3348 L220.467 65.3348 L220.467 65.3348  Z
  " fill="#009af9" fill-rule="evenodd" fill-opacity="1"/>
<polyline clip-path="url(#clip712)" style="stroke:#000000; stroke-width:4; stroke-opacity:1; fill:none" points="
  220.467,65.3348 220.467,668.357 405.315,668.357 405.315,65.3348 220.467,65.3348 
  "/>
<path clip-path="url(#clip712)" d="
M451.526 668.357 L451.526 668.357 L636.374 668.357 L636.374 668.357 L451.526 668.357 L451.526 668.357  Z
  " fill="#009af9" fill-rule="evenodd" fill-opacity="1"/>
<polyline clip-path="url(#clip712)" style="stroke:#000000; stroke-width:4; stroke-opacity:1; fill:none" points="
  451.526,668.357 451.526,668.357 636.374,668.357 451.526,668.357 
  "/>
<path clip-path="url(#clip712)" d="
M682.586 668.357 L682.586 668.357 L867.434 668.357 L867.434 668.357 L682.586 668.357 L682.586 668.357  Z
  " fill="#009af9" fill-rule="evenodd" fill-opacity="1"/>
<polyline clip-path="url(#clip712)" style="stroke:#000000; stroke-width:4; stroke-opacity:1; fill:none" points="
  682.586,668.357 682.586,668.357 867.434,668.357 682.586,668.357 
  "/>
<path clip-path="url(#clip712)" d="
M913.646 102.732 L913.646 668.357 L1098.49 668.357 L1098.49 102.732 L913.646 102.732 L913.646 102.732  Z
  " fill="#009af9" fill-rule="evenodd" fill-opacity="1"/>
<polyline clip-path="url(#clip712)" style="stroke:#000000; stroke-width:4; stroke-opacity:1; fill:none" points="
  913.646,102.732 913.646,668.357 1098.49,668.357 1098.49,102.732 913.646,102.732 
  "/>
<path clip-path="url(#clip710)" d="
M1366.2 686.448 L2352.76 686.448 L2352.76 47.2441 L1366.2 47.2441  Z
  " fill="#ffffff" fill-rule="evenodd" fill-opacity="1"/>
<defs>
  <clipPath id="clip713">
    <rect x="1366" y="47" width="988" height="640"/>
  </clipPath>
</defs>
<polyline clip-path="url(#clip713)" style="stroke:#000000; stroke-width:2; stroke-opacity:0.1; fill:none" points="
  1465.49,686.448 1465.49,47.2441 
  "/>
<polyline clip-path="url(#clip713)" style="stroke:#000000; stroke-width:2; stroke-opacity:0.1; fill:none" points="
  1690.63,686.448 1690.63,47.2441 
  "/>
<polyline clip-path="url(#clip713)" style="stroke:#000000; stroke-width:2; stroke-opacity:0.1; fill:none" points="
  1915.76,686.448 1915.76,47.2441 
  "/>
<polyline clip-path="url(#clip713)" style="stroke:#000000; stroke-width:2; stroke-opacity:0.1; fill:none" points="
  2140.9,686.448 2140.9,47.2441 
  "/>
<polyline clip-path="url(#clip713)" style="stroke:#000000; stroke-width:2; stroke-opacity:0.1; fill:none" points="
  1366.2,668.357 2352.76,668.357 
  "/>
<polyline clip-path="url(#clip713)" style="stroke:#000000; stroke-width:2; stroke-opacity:0.1; fill:none" points="
  1366.2,548.233 2352.76,548.233 
  "/>
<polyline clip-path="url(#clip713)" style="stroke:#000000; stroke-width:2; stroke-opacity:0.1; fill:none" points="
  1366.2,428.109 2352.76,428.109 
  "/>
<polyline clip-path="url(#clip713)" style="stroke:#000000; stroke-width:2; stroke-opacity:0.1; fill:none" points="
  1366.2,307.985 2352.76,307.985 
  "/>
<polyline clip-path="url(#clip713)" style="stroke:#000000; stroke-width:2; stroke-opacity:0.1; fill:none" points="
  1366.2,187.861 2352.76,187.861 
  "/>
<polyline clip-path="url(#clip713)" style="stroke:#000000; stroke-width:2; stroke-opacity:0.1; fill:none" points="
  1366.2,67.7372 2352.76,67.7372 
  "/>
<polyline clip-path="url(#clip710)" style="stroke:#000000; stroke-width:4; stroke-opacity:1; fill:none" points="
  1366.2,686.448 2352.76,686.448 
  "/>
<polyline clip-path="url(#clip710)" style="stroke:#000000; stroke-width:4; stroke-opacity:1; fill:none" points="
  1366.2,686.448 1366.2,47.2441 
  "/>
<polyline clip-path="url(#clip710)" style="stroke:#000000; stroke-width:4; stroke-opacity:1; fill:none" points="
  1465.49,686.448 1465.49,678.777 
  "/>
<polyline clip-path="url(#clip710)" style="stroke:#000000; stroke-width:4; stroke-opacity:1; fill:none" points="
  1690.63,686.448 1690.63,678.777 
  "/>
<polyline clip-path="url(#clip710)" style="stroke:#000000; stroke-width:4; stroke-opacity:1; fill:none" points="
  1915.76,686.448 1915.76,678.777 
  "/>
<polyline clip-path="url(#clip710)" style="stroke:#000000; stroke-width:4; stroke-opacity:1; fill:none" points="
  2140.9,686.448 2140.9,678.777 
  "/>
<polyline clip-path="url(#clip710)" style="stroke:#000000; stroke-width:4; stroke-opacity:1; fill:none" points="
  1366.2,668.357 1378.04,668.357 
  "/>
<polyline clip-path="url(#clip710)" style="stroke:#000000; stroke-width:4; stroke-opacity:1; fill:none" points="
  1366.2,548.233 1378.04,548.233 
  "/>
<polyline clip-path="url(#clip710)" style="stroke:#000000; stroke-width:4; stroke-opacity:1; fill:none" points="
  1366.2,428.109 1378.04,428.109 
  "/>
<polyline clip-path="url(#clip710)" style="stroke:#000000; stroke-width:4; stroke-opacity:1; fill:none" points="
  1366.2,307.985 1378.04,307.985 
  "/>
<polyline clip-path="url(#clip710)" style="stroke:#000000; stroke-width:4; stroke-opacity:1; fill:none" points="
  1366.2,187.861 1378.04,187.861 
  "/>
<polyline clip-path="url(#clip710)" style="stroke:#000000; stroke-width:4; stroke-opacity:1; fill:none" points="
  1366.2,67.7372 1378.04,67.7372 
  "/>
<path clip-path="url(#clip710)" d="M 0 0 M1465.49 708.439 Q1461.88 708.439 1460.05 712.003 Q1458.25 715.545 1458.25 722.675 Q1458.25 729.781 1460.05 733.346 Q1461.88 736.887 1465.49 736.887 Q1469.13 736.887 1470.93 733.346 Q1472.76 729.781 1472.76 722.675 Q1472.76 715.545 1470.93 712.003 Q1469.13 708.439 1465.49 708.439 M1465.49 704.735 Q1471.3 704.735 1474.36 709.341 Q1477.44 713.925 1477.44 722.675 Q1477.44 731.401 1474.36 736.008 Q1471.3 740.591 1465.49 740.591 Q1459.68 740.591 1456.6 736.008 Q1453.55 731.401 1453.55 722.675 Q1453.55 713.925 1456.6 709.341 Q1459.68 704.735 1465.49 704.735 Z" fill="#000000" fill-rule="evenodd" fill-opacity="1" /><path clip-path="url(#clip710)" d="M 0 0 M1685.28 735.985 L1701.6 735.985 L1701.6 739.92 L1679.66 739.92 L1679.66 735.985 Q1682.32 733.23 1686.9 728.6 Q1691.51 723.948 1692.69 722.605 Q1694.93 720.082 1695.81 718.346 Q1696.72 716.587 1696.72 714.897 Q1696.72 712.142 1694.77 710.406 Q1692.85 708.67 1689.75 708.67 Q1687.55 708.67 1685.1 709.434 Q1682.67 710.198 1679.89 711.749 L1679.89 707.027 Q1682.71 705.892 1685.17 705.314 Q1687.62 704.735 1689.66 704.735 Q1695.03 704.735 1698.22 707.42 Q1701.42 710.105 1701.42 714.596 Q1701.42 716.726 1700.61 718.647 Q1699.82 720.545 1697.71 723.138 Q1697.13 723.809 1694.03 727.026 Q1690.93 730.221 1685.28 735.985 Z" fill="#000000" fill-rule="evenodd" fill-opacity="1" /><path clip-path="url(#clip710)" d="M 0 0 M1918.77 709.434 L1906.97 727.883 L1918.77 727.883 L1918.77 709.434 M1917.55 705.36 L1923.43 705.36 L1923.43 727.883 L1928.36 727.883 L1928.36 731.772 L1923.43 731.772 L1923.43 739.92 L1918.77 739.92 L1918.77 731.772 L1903.17 731.772 L1903.17 727.258 L1917.55 705.36 Z" fill="#000000" fill-rule="evenodd" fill-opacity="1" /><path clip-path="url(#clip710)" d="M 0 0 M2141.3 720.776 Q2138.16 720.776 2136.3 722.929 Q2134.48 725.082 2134.48 728.832 Q2134.48 732.559 2136.3 734.735 Q2138.16 736.887 2141.3 736.887 Q2144.45 736.887 2146.28 734.735 Q2148.13 732.559 2148.13 728.832 Q2148.13 725.082 2146.28 722.929 Q2144.45 720.776 2141.3 720.776 M2150.59 706.124 L2150.59 710.383 Q2148.83 709.55 2147.02 709.11 Q2145.24 708.67 2143.48 708.67 Q2138.85 708.67 2136.4 711.795 Q2133.97 714.92 2133.62 721.239 Q2134.98 719.226 2137.05 718.161 Q2139.11 717.073 2141.58 717.073 Q2146.79 717.073 2149.8 720.244 Q2152.83 723.392 2152.83 728.832 Q2152.83 734.156 2149.68 737.374 Q2146.54 740.591 2141.3 740.591 Q2135.31 740.591 2132.14 736.008 Q2128.97 731.401 2128.97 722.675 Q2128.97 714.48 2132.86 709.619 Q2136.74 704.735 2143.3 704.735 Q2145.05 704.735 2146.84 705.082 Q2148.64 705.429 2150.59 706.124 Z" fill="#000000" fill-rule="evenodd" fill-opacity="1" /><path clip-path="url(#clip710)" d="M 0 0 M1330.26 654.156 Q1326.65 654.156 1324.82 657.721 Q1323.01 661.262 1323.01 668.392 Q1323.01 675.498 1324.82 679.063 Q1326.65 682.605 1330.26 682.605 Q1333.89 682.605 1335.7 679.063 Q1337.53 675.498 1337.53 668.392 Q1337.53 661.262 1335.7 657.721 Q1333.89 654.156 1330.26 654.156 M1330.26 650.452 Q1336.07 650.452 1339.13 655.059 Q1342.2 659.642 1342.2 668.392 Q1342.2 677.119 1339.13 681.725 Q1336.07 686.308 1330.26 686.308 Q1324.45 686.308 1321.37 681.725 Q1318.32 677.119 1318.32 668.392 Q1318.32 659.642 1321.37 655.059 Q1324.45 650.452 1330.26 650.452 Z" fill="#000000" fill-rule="evenodd" fill-opacity="1" /><path clip-path="url(#clip710)" d="M 0 0 M1268.27 561.578 L1275.91 561.578 L1275.91 535.212 L1267.6 536.879 L1267.6 532.62 L1275.86 530.953 L1280.54 530.953 L1280.54 561.578 L1288.18 561.578 L1288.18 565.513 L1268.27 565.513 L1268.27 561.578 Z" fill="#000000" fill-rule="evenodd" fill-opacity="1" /><path clip-path="url(#clip710)" d="M 0 0 M1303.25 534.032 Q1299.64 534.032 1297.81 537.597 Q1296 541.138 1296 548.268 Q1296 555.374 1297.81 558.939 Q1299.64 562.481 1303.25 562.481 Q1306.88 562.481 1308.69 558.939 Q1310.52 555.374 1310.52 548.268 Q1310.52 541.138 1308.69 537.597 Q1306.88 534.032 1303.25 534.032 M1303.25 530.328 Q1309.06 530.328 1312.11 534.935 Q1315.19 539.518 1315.19 548.268 Q1315.19 556.995 1312.11 561.601 Q1309.06 566.185 1303.25 566.185 Q1297.44 566.185 1294.36 561.601 Q1291.3 556.995 1291.3 548.268 Q1291.3 539.518 1294.36 534.935 Q1297.44 530.328 1303.25 530.328 Z" fill="#000000" fill-rule="evenodd" fill-opacity="1" /><path clip-path="url(#clip710)" d="M 0 0 M1330.26 534.032 Q1326.65 534.032 1324.82 537.597 Q1323.01 541.138 1323.01 548.268 Q1323.01 555.374 1324.82 558.939 Q1326.65 562.481 1330.26 562.481 Q1333.89 562.481 1335.7 558.939 Q1337.53 555.374 1337.53 548.268 Q1337.53 541.138 1335.7 537.597 Q1333.89 534.032 1330.26 534.032 M1330.26 530.328 Q1336.07 530.328 1339.13 534.935 Q1342.2 539.518 1342.2 548.268 Q1342.2 556.995 1339.13 561.601 Q1336.07 566.185 1330.26 566.185 Q1324.45 566.185 1321.37 561.601 Q1318.32 556.995 1318.32 548.268 Q1318.32 539.518 1321.37 534.935 Q1324.45 530.328 1330.26 530.328 Z" fill="#000000" fill-rule="evenodd" fill-opacity="1" /><path clip-path="url(#clip710)" d="M 0 0 M1271.86 441.454 L1288.18 441.454 L1288.18 445.389 L1266.23 445.389 L1266.23 441.454 Q1268.89 438.699 1273.48 434.07 Q1278.08 429.417 1279.27 428.074 Q1281.51 425.551 1282.39 423.815 Q1283.29 422.056 1283.29 420.366 Q1283.29 417.612 1281.35 415.875 Q1279.43 414.139 1276.33 414.139 Q1274.13 414.139 1271.67 414.903 Q1269.24 415.667 1266.46 417.218 L1266.46 412.496 Q1269.29 411.362 1271.74 410.783 Q1274.2 410.204 1276.23 410.204 Q1281.6 410.204 1284.8 412.889 Q1287.99 415.575 1287.99 420.065 Q1287.99 422.195 1287.18 424.116 Q1286.39 426.014 1284.29 428.607 Q1283.71 429.278 1280.61 432.496 Q1277.51 435.69 1271.86 441.454 Z" fill="#000000" fill-rule="evenodd" fill-opacity="1" /><path clip-path="url(#clip710)" d="M 0 0 M1303.25 413.908 Q1299.64 413.908 1297.81 417.473 Q1296 421.014 1296 428.144 Q1296 435.25 1297.81 438.815 Q1299.64 442.357 1303.25 442.357 Q1306.88 442.357 1308.69 438.815 Q1310.52 435.25 1310.52 428.144 Q1310.52 421.014 1308.69 417.473 Q1306.88 413.908 1303.25 413.908 M1303.25 410.204 Q1309.06 410.204 1312.11 414.811 Q1315.19 419.394 1315.19 428.144 Q1315.19 436.871 1312.11 441.477 Q1309.06 446.061 1303.25 446.061 Q1297.44 446.061 1294.36 441.477 Q1291.3 436.871 1291.3 428.144 Q1291.3 419.394 1294.36 414.811 Q1297.44 410.204 1303.25 410.204 Z" fill="#000000" fill-rule="evenodd" fill-opacity="1" /><path clip-path="url(#clip710)" d="M 0 0 M1330.26 413.908 Q1326.65 413.908 1324.82 417.473 Q1323.01 421.014 1323.01 428.144 Q1323.01 435.25 1324.82 438.815 Q1326.65 442.357 1330.26 442.357 Q1333.89 442.357 1335.7 438.815 Q1337.53 435.25 1337.53 428.144 Q1337.53 421.014 1335.7 417.473 Q1333.89 413.908 1330.26 413.908 M1330.26 410.204 Q1336.07 410.204 1339.13 414.811 Q1342.2 419.394 1342.2 428.144 Q1342.2 436.871 1339.13 441.477 Q1336.07 446.061 1330.26 446.061 Q1324.45 446.061 1321.37 441.477 Q1318.32 436.871 1318.32 428.144 Q1318.32 419.394 1321.37 414.811 Q1324.45 410.204 1330.26 410.204 Z" fill="#000000" fill-rule="evenodd" fill-opacity="1" /><path clip-path="url(#clip710)" d="M 0 0 M1281.05 306.631 Q1284.4 307.349 1286.28 309.617 Q1288.18 311.886 1288.18 315.219 Q1288.18 320.335 1284.66 323.136 Q1281.14 325.937 1274.66 325.937 Q1272.48 325.937 1270.17 325.497 Q1267.88 325.08 1265.42 324.224 L1265.42 319.71 Q1267.37 320.844 1269.68 321.423 Q1272 322.001 1274.52 322.001 Q1278.92 322.001 1281.21 320.265 Q1283.52 318.529 1283.52 315.219 Q1283.52 312.163 1281.37 310.45 Q1279.24 308.714 1275.42 308.714 L1271.39 308.714 L1271.39 304.872 L1275.61 304.872 Q1279.06 304.872 1280.89 303.506 Q1282.71 302.117 1282.71 299.525 Q1282.71 296.863 1280.82 295.451 Q1278.94 294.015 1275.42 294.015 Q1273.5 294.015 1271.3 294.432 Q1269.1 294.849 1266.46 295.728 L1266.46 291.562 Q1269.13 290.821 1271.44 290.451 Q1273.78 290.08 1275.84 290.08 Q1281.16 290.08 1284.27 292.511 Q1287.37 294.918 1287.37 299.039 Q1287.37 301.909 1285.72 303.9 Q1284.08 305.867 1281.05 306.631 Z" fill="#000000" fill-rule="evenodd" fill-opacity="1" /><path clip-path="url(#clip710)" d="M 0 0 M1303.25 293.784 Q1299.64 293.784 1297.81 297.349 Q1296 300.89 1296 308.02 Q1296 315.126 1297.81 318.691 Q1299.64 322.233 1303.25 322.233 Q1306.88 322.233 1308.69 318.691 Q1310.52 315.126 1310.52 308.02 Q1310.52 300.89 1308.69 297.349 Q1306.88 293.784 1303.25 293.784 M1303.25 290.08 Q1309.06 290.08 1312.11 294.687 Q1315.19 299.27 1315.19 308.02 Q1315.19 316.747 1312.11 321.353 Q1309.06 325.937 1303.25 325.937 Q1297.44 325.937 1294.36 321.353 Q1291.3 316.747 1291.3 308.02 Q1291.3 299.27 1294.36 294.687 Q1297.44 290.08 1303.25 290.08 Z" fill="#000000" fill-rule="evenodd" fill-opacity="1" /><path clip-path="url(#clip710)" d="M 0 0 M1330.26 293.784 Q1326.65 293.784 1324.82 297.349 Q1323.01 300.89 1323.01 308.02 Q1323.01 315.126 1324.82 318.691 Q1326.65 322.233 1330.26 322.233 Q1333.89 322.233 1335.7 318.691 Q1337.53 315.126 1337.53 308.02 Q1337.53 300.89 1335.7 297.349 Q1333.89 293.784 1330.26 293.784 M1330.26 290.08 Q1336.07 290.08 1339.13 294.687 Q1342.2 299.27 1342.2 308.02 Q1342.2 316.747 1339.13 321.353 Q1336.07 325.937 1330.26 325.937 Q1324.45 325.937 1321.37 321.353 Q1318.32 316.747 1318.32 308.02 Q1318.32 299.27 1321.37 294.687 Q1324.45 290.08 1330.26 290.08 Z" fill="#000000" fill-rule="evenodd" fill-opacity="1" /><path clip-path="url(#clip710)" d="M 0 0 M1278.59 174.655 L1266.79 193.104 L1278.59 193.104 L1278.59 174.655 M1277.37 170.581 L1283.25 170.581 L1283.25 193.104 L1288.18 193.104 L1288.18 196.993 L1283.25 196.993 L1283.25 205.141 L1278.59 205.141 L1278.59 196.993 L1262.99 196.993 L1262.99 192.479 L1277.37 170.581 Z" fill="#000000" fill-rule="evenodd" fill-opacity="1" /><path clip-path="url(#clip710)" d="M 0 0 M1303.25 173.66 Q1299.64 173.66 1297.81 177.225 Q1296 180.766 1296 187.896 Q1296 195.002 1297.81 198.567 Q1299.64 202.109 1303.25 202.109 Q1306.88 202.109 1308.69 198.567 Q1310.52 195.002 1310.52 187.896 Q1310.52 180.766 1308.69 177.225 Q1306.88 173.66 1303.25 173.66 M1303.25 169.956 Q1309.06 169.956 1312.11 174.563 Q1315.19 179.146 1315.19 187.896 Q1315.19 196.623 1312.11 201.229 Q1309.06 205.813 1303.25 205.813 Q1297.44 205.813 1294.36 201.229 Q1291.3 196.623 1291.3 187.896 Q1291.3 179.146 1294.36 174.563 Q1297.44 169.956 1303.25 169.956 Z" fill="#000000" fill-rule="evenodd" fill-opacity="1" /><path clip-path="url(#clip710)" d="M 0 0 M1330.26 173.66 Q1326.65 173.66 1324.82 177.225 Q1323.01 180.766 1323.01 187.896 Q1323.01 195.002 1324.82 198.567 Q1326.65 202.109 1330.26 202.109 Q1333.89 202.109 1335.7 198.567 Q1337.53 195.002 1337.53 187.896 Q1337.53 180.766 1335.7 177.225 Q1333.89 173.66 1330.26 173.66 M1330.26 169.956 Q1336.07 169.956 1339.13 174.563 Q1342.2 179.146 1342.2 187.896 Q1342.2 196.623 1339.13 201.229 Q1336.07 205.813 1330.26 205.813 Q1324.45 205.813 1321.37 201.229 Q1318.32 196.623 1318.32 187.896 Q1318.32 179.146 1321.37 174.563 Q1324.45 169.956 1330.26 169.956 Z" fill="#000000" fill-rule="evenodd" fill-opacity="1" /><path clip-path="url(#clip710)" d="M 0 0 M1267.27 50.4572 L1285.63 50.4572 L1285.63 54.3924 L1271.56 54.3924 L1271.56 62.8646 Q1272.58 62.5174 1273.59 62.3553 Q1274.61 62.1701 1275.63 62.1701 Q1281.42 62.1701 1284.8 65.3414 Q1288.18 68.5127 1288.18 73.9293 Q1288.18 79.508 1284.7 82.6099 Q1281.23 85.6885 1274.91 85.6885 Q1272.74 85.6885 1270.47 85.3182 Q1268.22 84.9478 1265.82 84.2071 L1265.82 79.508 Q1267.9 80.6423 1270.12 81.1978 Q1272.34 81.7534 1274.82 81.7534 Q1278.83 81.7534 1281.16 79.6469 Q1283.5 77.5404 1283.5 73.9293 Q1283.5 70.3183 1281.16 68.2118 Q1278.83 66.1053 1274.82 66.1053 Q1272.95 66.1053 1271.07 66.522 Q1269.22 66.9386 1267.27 67.8183 L1267.27 50.4572 Z" fill="#000000" fill-rule="evenodd" fill-opacity="1" /><path clip-path="url(#clip710)" d="M 0 0 M1303.25 53.5359 Q1299.64 53.5359 1297.81 57.1007 Q1296 60.6424 1296 67.772 Q1296 74.8784 1297.81 78.4432 Q1299.64 81.9849 1303.25 81.9849 Q1306.88 81.9849 1308.69 78.4432 Q1310.52 74.8784 1310.52 67.772 Q1310.52 60.6424 1308.69 57.1007 Q1306.88 53.5359 1303.25 53.5359 M1303.25 49.8323 Q1309.06 49.8323 1312.11 54.4387 Q1315.19 59.022 1315.19 67.772 Q1315.19 76.4988 1312.11 81.1052 Q1309.06 85.6885 1303.25 85.6885 Q1297.44 85.6885 1294.36 81.1052 Q1291.3 76.4988 1291.3 67.772 Q1291.3 59.022 1294.36 54.4387 Q1297.44 49.8323 1303.25 49.8323 Z" fill="#000000" fill-rule="evenodd" fill-opacity="1" /><path clip-path="url(#clip710)" d="M 0 0 M1330.26 53.5359 Q1326.65 53.5359 1324.82 57.1007 Q1323.01 60.6424 1323.01 67.772 Q1323.01 74.8784 1324.82 78.4432 Q1326.65 81.9849 1330.26 81.9849 Q1333.89 81.9849 1335.7 78.4432 Q1337.53 74.8784 1337.53 67.772 Q1337.53 60.6424 1335.7 57.1007 Q1333.89 53.5359 1330.26 53.5359 M1330.26 49.8323 Q1336.07 49.8323 1339.13 54.4387 Q1342.2 59.022 1342.2 67.772 Q1342.2 76.4988 1339.13 81.1052 Q1336.07 85.6885 1330.26 85.6885 Q1324.45 85.6885 1321.37 81.1052 Q1318.32 76.4988 1318.32 67.772 Q1318.32 59.022 1321.37 54.4387 Q1324.45 49.8323 1330.26 49.8323 Z" fill="#000000" fill-rule="evenodd" fill-opacity="1" /><path clip-path="url(#clip713)" d="
M1420.47 65.3348 L1420.47 668.357 L1510.52 668.357 L1510.52 65.3348 L1420.47 65.3348 L1420.47 65.3348  Z
  " fill="#009af9" fill-rule="evenodd" fill-opacity="1"/>
<polyline clip-path="url(#clip713)" style="stroke:#000000; stroke-width:4; stroke-opacity:1; fill:none" points="
  1420.47,65.3348 1420.47,668.357 1510.52,668.357 1510.52,65.3348 1420.47,65.3348 
  "/>
<path clip-path="url(#clip713)" d="
M1533.03 668.357 L1533.03 668.357 L1623.09 668.357 L1623.09 668.357 L1533.03 668.357 L1533.03 668.357  Z
  " fill="#009af9" fill-rule="evenodd" fill-opacity="1"/>
<polyline clip-path="url(#clip713)" style="stroke:#000000; stroke-width:4; stroke-opacity:1; fill:none" points="
  1533.03,668.357 1533.03,668.357 1623.09,668.357 1533.03,668.357 
  "/>
<path clip-path="url(#clip713)" d="
M1645.6 668.357 L1645.6 668.357 L1735.66 668.357 L1735.66 668.357 L1645.6 668.357 L1645.6 668.357  Z
  " fill="#009af9" fill-rule="evenodd" fill-opacity="1"/>
<polyline clip-path="url(#clip713)" style="stroke:#000000; stroke-width:4; stroke-opacity:1; fill:none" points="
  1645.6,668.357 1645.6,668.357 1735.66,668.357 1645.6,668.357 
  "/>
<path clip-path="url(#clip713)" d="
M1758.17 668.357 L1758.17 668.357 L1848.22 668.357 L1848.22 668.357 L1758.17 668.357 L1758.17 668.357  Z
  " fill="#009af9" fill-rule="evenodd" fill-opacity="1"/>
<polyline clip-path="url(#clip713)" style="stroke:#000000; stroke-width:4; stroke-opacity:1; fill:none" points="
  1758.17,668.357 1758.17,668.357 1848.22,668.357 1758.17,668.357 
  "/>
<path clip-path="url(#clip713)" d="
M1870.74 668.357 L1870.74 668.357 L1960.79 668.357 L1960.79 668.357 L1870.74 668.357 L1870.74 668.357  Z
  " fill="#009af9" fill-rule="evenodd" fill-opacity="1"/>
<polyline clip-path="url(#clip713)" style="stroke:#000000; stroke-width:4; stroke-opacity:1; fill:none" points="
  1870.74,668.357 1870.74,668.357 1960.79,668.357 1870.74,668.357 
  "/>
<path clip-path="url(#clip713)" d="
M1983.3 668.357 L1983.3 668.357 L2073.36 668.357 L2073.36 668.357 L1983.3 668.357 L1983.3 668.357  Z
  " fill="#009af9" fill-rule="evenodd" fill-opacity="1"/>
<polyline clip-path="url(#clip713)" style="stroke:#000000; stroke-width:4; stroke-opacity:1; fill:none" points="
  1983.3,668.357 1983.3,668.357 2073.36,668.357 1983.3,668.357 
  "/>
<path clip-path="url(#clip713)" d="
M2095.87 668.357 L2095.87 668.357 L2185.93 668.357 L2185.93 668.357 L2095.87 668.357 L2095.87 668.357  Z
  " fill="#009af9" fill-rule="evenodd" fill-opacity="1"/>
<polyline clip-path="url(#clip713)" style="stroke:#000000; stroke-width:4; stroke-opacity:1; fill:none" points="
  2095.87,668.357 2095.87,668.357 2185.93,668.357 2095.87,668.357 
  "/>
<path clip-path="url(#clip713)" d="
M2208.44 70.1397 L2208.44 668.357 L2298.49 668.357 L2298.49 70.1397 L2208.44 70.1397 L2208.44 70.1397  Z
  " fill="#009af9" fill-rule="evenodd" fill-opacity="1"/>
<polyline clip-path="url(#clip713)" style="stroke:#000000; stroke-width:4; stroke-opacity:1; fill:none" points="
  2208.44,70.1397 2208.44,668.357 2298.49,668.357 2298.49,70.1397 2208.44,70.1397 
  "/>
<path clip-path="url(#clip710)" d="
M166.205 1486.45 L1152.76 1486.45 L1152.76 847.244 L166.205 847.244  Z
  " fill="#ffffff" fill-rule="evenodd" fill-opacity="1"/>
<defs>
  <clipPath id="clip714">
    <rect x="166" y="847" width="988" height="640"/>
  </clipPath>
</defs>
<polyline clip-path="url(#clip714)" style="stroke:#000000; stroke-width:2; stroke-opacity:0.1; fill:none" points="
  242.695,1486.45 242.695,847.244 
  "/>
<polyline clip-path="url(#clip714)" style="stroke:#000000; stroke-width:2; stroke-opacity:0.1; fill:none" points="
  520.552,1486.45 520.552,847.244 
  "/>
<polyline clip-path="url(#clip714)" style="stroke:#000000; stroke-width:2; stroke-opacity:0.1; fill:none" points="
  798.409,1486.45 798.409,847.244 
  "/>
<polyline clip-path="url(#clip714)" style="stroke:#000000; stroke-width:2; stroke-opacity:0.1; fill:none" points="
  1076.27,1486.45 1076.27,847.244 
  "/>
<polyline clip-path="url(#clip714)" style="stroke:#000000; stroke-width:2; stroke-opacity:0.1; fill:none" points="
  166.205,1468.36 1152.76,1468.36 
  "/>
<polyline clip-path="url(#clip714)" style="stroke:#000000; stroke-width:2; stroke-opacity:0.1; fill:none" points="
  166.205,1347.75 1152.76,1347.75 
  "/>
<polyline clip-path="url(#clip714)" style="stroke:#000000; stroke-width:2; stroke-opacity:0.1; fill:none" points="
  166.205,1227.15 1152.76,1227.15 
  "/>
<polyline clip-path="url(#clip714)" style="stroke:#000000; stroke-width:2; stroke-opacity:0.1; fill:none" points="
  166.205,1106.54 1152.76,1106.54 
  "/>
<polyline clip-path="url(#clip714)" style="stroke:#000000; stroke-width:2; stroke-opacity:0.1; fill:none" points="
  166.205,985.939 1152.76,985.939 
  "/>
<polyline clip-path="url(#clip714)" style="stroke:#000000; stroke-width:2; stroke-opacity:0.1; fill:none" points="
  166.205,865.335 1152.76,865.335 
  "/>
<polyline clip-path="url(#clip710)" style="stroke:#000000; stroke-width:4; stroke-opacity:1; fill:none" points="
  166.205,1486.45 1152.76,1486.45 
  "/>
<polyline clip-path="url(#clip710)" style="stroke:#000000; stroke-width:4; stroke-opacity:1; fill:none" points="
  166.205,1486.45 166.205,847.244 
  "/>
<polyline clip-path="url(#clip710)" style="stroke:#000000; stroke-width:4; stroke-opacity:1; fill:none" points="
  242.695,1486.45 242.695,1478.78 
  "/>
<polyline clip-path="url(#clip710)" style="stroke:#000000; stroke-width:4; stroke-opacity:1; fill:none" points="
  520.552,1486.45 520.552,1478.78 
  "/>
<polyline clip-path="url(#clip710)" style="stroke:#000000; stroke-width:4; stroke-opacity:1; fill:none" points="
  798.409,1486.45 798.409,1478.78 
  "/>
<polyline clip-path="url(#clip710)" style="stroke:#000000; stroke-width:4; stroke-opacity:1; fill:none" points="
  1076.27,1486.45 1076.27,1478.78 
  "/>
<polyline clip-path="url(#clip710)" style="stroke:#000000; stroke-width:4; stroke-opacity:1; fill:none" points="
  166.205,1468.36 178.043,1468.36 
  "/>
<polyline clip-path="url(#clip710)" style="stroke:#000000; stroke-width:4; stroke-opacity:1; fill:none" points="
  166.205,1347.75 178.043,1347.75 
  "/>
<polyline clip-path="url(#clip710)" style="stroke:#000000; stroke-width:4; stroke-opacity:1; fill:none" points="
  166.205,1227.15 178.043,1227.15 
  "/>
<polyline clip-path="url(#clip710)" style="stroke:#000000; stroke-width:4; stroke-opacity:1; fill:none" points="
  166.205,1106.54 178.043,1106.54 
  "/>
<polyline clip-path="url(#clip710)" style="stroke:#000000; stroke-width:4; stroke-opacity:1; fill:none" points="
  166.205,985.939 178.043,985.939 
  "/>
<polyline clip-path="url(#clip710)" style="stroke:#000000; stroke-width:4; stroke-opacity:1; fill:none" points="
  166.205,865.335 178.043,865.335 
  "/>
<path clip-path="url(#clip710)" d="M 0 0 M242.695 1508.44 Q239.084 1508.44 237.255 1512 Q235.45 1515.55 235.45 1522.67 Q235.45 1529.78 237.255 1533.35 Q239.084 1536.89 242.695 1536.89 Q246.33 1536.89 248.135 1533.35 Q249.964 1529.78 249.964 1522.67 Q249.964 1515.55 248.135 1512 Q246.33 1508.44 242.695 1508.44 M242.695 1504.73 Q248.505 1504.73 251.561 1509.34 Q254.64 1513.92 254.64 1522.67 Q254.64 1531.4 251.561 1536.01 Q248.505 1540.59 242.695 1540.59 Q236.885 1540.59 233.806 1536.01 Q230.751 1531.4 230.751 1522.67 Q230.751 1513.92 233.806 1509.34 Q236.885 1504.73 242.695 1504.73 Z" fill="#000000" fill-rule="evenodd" fill-opacity="1" /><path clip-path="url(#clip710)" d="M 0 0 M510.83 1505.36 L529.186 1505.36 L529.186 1509.3 L515.112 1509.3 L515.112 1517.77 Q516.131 1517.42 517.149 1517.26 Q518.168 1517.07 519.186 1517.07 Q524.973 1517.07 528.353 1520.24 Q531.732 1523.42 531.732 1528.83 Q531.732 1534.41 528.26 1537.51 Q524.788 1540.59 518.469 1540.59 Q516.293 1540.59 514.024 1540.22 Q511.779 1539.85 509.371 1539.11 L509.371 1534.41 Q511.455 1535.54 513.677 1536.1 Q515.899 1536.66 518.376 1536.66 Q522.381 1536.66 524.719 1534.55 Q527.057 1532.44 527.057 1528.83 Q527.057 1525.22 524.719 1523.11 Q522.381 1521.01 518.376 1521.01 Q516.501 1521.01 514.626 1521.42 Q512.774 1521.84 510.83 1522.72 L510.83 1505.36 Z" fill="#000000" fill-rule="evenodd" fill-opacity="1" /><path clip-path="url(#clip710)" d="M 0 0 M775.284 1535.98 L782.923 1535.98 L782.923 1509.62 L774.612 1511.29 L774.612 1507.03 L782.876 1505.36 L787.552 1505.36 L787.552 1535.98 L795.191 1535.98 L795.191 1539.92 L775.284 1539.92 L775.284 1535.98 Z" fill="#000000" fill-rule="evenodd" fill-opacity="1" /><path clip-path="url(#clip710)" d="M 0 0 M810.26 1508.44 Q806.649 1508.44 804.821 1512 Q803.015 1515.55 803.015 1522.67 Q803.015 1529.78 804.821 1533.35 Q806.649 1536.89 810.26 1536.89 Q813.895 1536.89 815.7 1533.35 Q817.529 1529.78 817.529 1522.67 Q817.529 1515.55 815.7 1512 Q813.895 1508.44 810.26 1508.44 M810.26 1504.73 Q816.071 1504.73 819.126 1509.34 Q822.205 1513.92 822.205 1522.67 Q822.205 1531.4 819.126 1536.01 Q816.071 1540.59 810.26 1540.59 Q804.45 1540.59 801.372 1536.01 Q798.316 1531.4 798.316 1522.67 Q798.316 1513.92 801.372 1509.34 Q804.45 1504.73 810.26 1504.73 Z" fill="#000000" fill-rule="evenodd" fill-opacity="1" /><path clip-path="url(#clip710)" d="M 0 0 M1053.64 1535.98 L1061.28 1535.98 L1061.28 1509.62 L1052.97 1511.29 L1052.97 1507.03 L1061.23 1505.36 L1065.91 1505.36 L1065.91 1535.98 L1073.55 1535.98 L1073.55 1539.92 L1053.64 1539.92 L1053.64 1535.98 Z" fill="#000000" fill-rule="evenodd" fill-opacity="1" /><path clip-path="url(#clip710)" d="M 0 0 M1078.66 1505.36 L1097.02 1505.36 L1097.02 1509.3 L1082.94 1509.3 L1082.94 1517.77 Q1083.96 1517.42 1084.98 1517.26 Q1086 1517.07 1087.02 1517.07 Q1092.8 1517.07 1096.18 1520.24 Q1099.56 1523.42 1099.56 1528.83 Q1099.56 1534.41 1096.09 1537.51 Q1092.62 1540.59 1086.3 1540.59 Q1084.12 1540.59 1081.86 1540.22 Q1079.61 1539.85 1077.2 1539.11 L1077.2 1534.41 Q1079.29 1535.54 1081.51 1536.1 Q1083.73 1536.66 1086.21 1536.66 Q1090.21 1536.66 1092.55 1534.55 Q1094.89 1532.44 1094.89 1528.83 Q1094.89 1525.22 1092.55 1523.11 Q1090.21 1521.01 1086.21 1521.01 Q1084.33 1521.01 1082.46 1521.42 Q1080.61 1521.84 1078.66 1522.72 L1078.66 1505.36 Z" fill="#000000" fill-rule="evenodd" fill-opacity="1" /><path clip-path="url(#clip710)" d="M 0 0 M130.26 1454.16 Q126.649 1454.16 124.82 1457.72 Q123.015 1461.26 123.015 1468.39 Q123.015 1475.5 124.82 1479.06 Q126.649 1482.6 130.26 1482.6 Q133.895 1482.6 135.7 1479.06 Q137.529 1475.5 137.529 1468.39 Q137.529 1461.26 135.7 1457.72 Q133.895 1454.16 130.26 1454.16 M130.26 1450.45 Q136.07 1450.45 139.126 1455.06 Q142.205 1459.64 142.205 1468.39 Q142.205 1477.12 139.126 1481.73 Q136.07 1486.31 130.26 1486.31 Q124.45 1486.31 121.371 1481.73 Q118.316 1477.12 118.316 1468.39 Q118.316 1459.64 121.371 1455.06 Q124.45 1450.45 130.26 1450.45 Z" fill="#000000" fill-rule="evenodd" fill-opacity="1" /><path clip-path="url(#clip710)" d="M 0 0 M68.2699 1361.1 L75.9087 1361.1 L75.9087 1334.73 L67.5986 1336.4 L67.5986 1332.14 L75.8624 1330.47 L80.5383 1330.47 L80.5383 1361.1 L88.1772 1361.1 L88.1772 1365.03 L68.2699 1365.03 L68.2699 1361.1 Z" fill="#000000" fill-rule="evenodd" fill-opacity="1" /><path clip-path="url(#clip710)" d="M 0 0 M103.247 1333.55 Q99.6354 1333.55 97.8068 1337.12 Q96.0012 1340.66 96.0012 1347.79 Q96.0012 1354.89 97.8068 1358.46 Q99.6354 1362 103.247 1362 Q106.881 1362 108.686 1358.46 Q110.515 1354.89 110.515 1347.79 Q110.515 1340.66 108.686 1337.12 Q106.881 1333.55 103.247 1333.55 M103.247 1329.85 Q109.057 1329.85 112.112 1334.45 Q115.191 1339.04 115.191 1347.79 Q115.191 1356.51 112.112 1361.12 Q109.057 1365.7 103.247 1365.7 Q97.4364 1365.7 94.3577 1361.12 Q91.3022 1356.51 91.3022 1347.79 Q91.3022 1339.04 94.3577 1334.45 Q97.4364 1329.85 103.247 1329.85 Z" fill="#000000" fill-rule="evenodd" fill-opacity="1" /><path clip-path="url(#clip710)" d="M 0 0 M130.26 1333.55 Q126.649 1333.55 124.82 1337.12 Q123.015 1340.66 123.015 1347.79 Q123.015 1354.89 124.82 1358.46 Q126.649 1362 130.26 1362 Q133.895 1362 135.7 1358.46 Q137.529 1354.89 137.529 1347.79 Q137.529 1340.66 135.7 1337.12 Q133.895 1333.55 130.26 1333.55 M130.26 1329.85 Q136.07 1329.85 139.126 1334.45 Q142.205 1339.04 142.205 1347.79 Q142.205 1356.51 139.126 1361.12 Q136.07 1365.7 130.26 1365.7 Q124.45 1365.7 121.371 1361.12 Q118.316 1356.51 118.316 1347.79 Q118.316 1339.04 121.371 1334.45 Q124.45 1329.85 130.26 1329.85 Z" fill="#000000" fill-rule="evenodd" fill-opacity="1" /><path clip-path="url(#clip710)" d="M 0 0 M71.8578 1240.49 L88.1772 1240.49 L88.1772 1244.43 L66.2328 1244.43 L66.2328 1240.49 Q68.8949 1237.74 73.4782 1233.11 Q78.0846 1228.46 79.2652 1227.11 Q81.5105 1224.59 82.3902 1222.85 Q83.2929 1221.1 83.2929 1219.41 Q83.2929 1216.65 81.3485 1214.91 Q79.4272 1213.18 76.3254 1213.18 Q74.1263 1213.18 71.6726 1213.94 Q69.2421 1214.71 66.4643 1216.26 L66.4643 1211.53 Q69.2884 1210.4 71.7421 1209.82 Q74.1958 1209.24 76.2328 1209.24 Q81.6031 1209.24 84.7976 1211.93 Q87.992 1214.61 87.992 1219.1 Q87.992 1221.23 87.1818 1223.16 Q86.3948 1225.05 84.2883 1227.65 Q83.7096 1228.32 80.6078 1231.53 Q77.5059 1234.73 71.8578 1240.49 Z" fill="#000000" fill-rule="evenodd" fill-opacity="1" /><path clip-path="url(#clip710)" d="M 0 0 M103.247 1212.95 Q99.6354 1212.95 97.8068 1216.51 Q96.0012 1220.05 96.0012 1227.18 Q96.0012 1234.29 97.8068 1237.85 Q99.6354 1241.4 103.247 1241.4 Q106.881 1241.4 108.686 1237.85 Q110.515 1234.29 110.515 1227.18 Q110.515 1220.05 108.686 1216.51 Q106.881 1212.95 103.247 1212.95 M103.247 1209.24 Q109.057 1209.24 112.112 1213.85 Q115.191 1218.43 115.191 1227.18 Q115.191 1235.91 112.112 1240.52 Q109.057 1245.1 103.247 1245.1 Q97.4364 1245.1 94.3577 1240.52 Q91.3022 1235.91 91.3022 1227.18 Q91.3022 1218.43 94.3577 1213.85 Q97.4364 1209.24 103.247 1209.24 Z" fill="#000000" fill-rule="evenodd" fill-opacity="1" /><path clip-path="url(#clip710)" d="M 0 0 M130.26 1212.95 Q126.649 1212.95 124.82 1216.51 Q123.015 1220.05 123.015 1227.18 Q123.015 1234.29 124.82 1237.85 Q126.649 1241.4 130.26 1241.4 Q133.895 1241.4 135.7 1237.85 Q137.529 1234.29 137.529 1227.18 Q137.529 1220.05 135.7 1216.51 Q133.895 1212.95 130.26 1212.95 M130.26 1209.24 Q136.07 1209.24 139.126 1213.85 Q142.205 1218.43 142.205 1227.18 Q142.205 1235.91 139.126 1240.52 Q136.07 1245.1 130.26 1245.1 Q124.45 1245.1 121.371 1240.52 Q118.316 1235.91 118.316 1227.18 Q118.316 1218.43 121.371 1213.85 Q124.45 1209.24 130.26 1209.24 Z" fill="#000000" fill-rule="evenodd" fill-opacity="1" /><path clip-path="url(#clip710)" d="M 0 0 M81.0476 1105.19 Q84.404 1105.91 86.279 1108.18 Q88.1772 1110.44 88.1772 1113.78 Q88.1772 1118.89 84.6587 1121.69 Q81.1402 1124.5 74.6587 1124.5 Q72.4828 1124.5 70.168 1124.06 Q67.8764 1123.64 65.4227 1122.78 L65.4227 1118.27 Q67.3671 1119.4 69.6819 1119.98 Q71.9967 1120.56 74.5198 1120.56 Q78.918 1120.56 81.2096 1118.82 Q83.5244 1117.09 83.5244 1113.78 Q83.5244 1110.72 81.3717 1109.01 Q79.242 1107.27 75.4226 1107.27 L71.3949 1107.27 L71.3949 1103.43 L75.6078 1103.43 Q79.0569 1103.43 80.8855 1102.06 Q82.7142 1100.68 82.7142 1098.08 Q82.7142 1095.42 80.8161 1094.01 Q78.9411 1092.57 75.4226 1092.57 Q73.5013 1092.57 71.3023 1092.99 Q69.1032 1093.41 66.4643 1094.29 L66.4643 1090.12 Q69.1264 1089.38 71.4412 1089.01 Q73.7791 1088.64 75.8393 1088.64 Q81.1633 1088.64 84.2652 1091.07 Q87.367 1093.48 87.367 1097.6 Q87.367 1100.47 85.7235 1102.46 Q84.08 1104.43 81.0476 1105.19 Z" fill="#000000" fill-rule="evenodd" fill-opacity="1" /><path clip-path="url(#clip710)" d="M 0 0 M103.247 1092.34 Q99.6354 1092.34 97.8068 1095.91 Q96.0012 1099.45 96.0012 1106.58 Q96.0012 1113.68 97.8068 1117.25 Q99.6354 1120.79 103.247 1120.79 Q106.881 1120.79 108.686 1117.25 Q110.515 1113.68 110.515 1106.58 Q110.515 1099.45 108.686 1095.91 Q106.881 1092.34 103.247 1092.34 M103.247 1088.64 Q109.057 1088.64 112.112 1093.25 Q115.191 1097.83 115.191 1106.58 Q115.191 1115.31 112.112 1119.91 Q109.057 1124.5 103.247 1124.5 Q97.4364 1124.5 94.3577 1119.91 Q91.3022 1115.31 91.3022 1106.58 Q91.3022 1097.83 94.3577 1093.25 Q97.4364 1088.64 103.247 1088.64 Z" fill="#000000" fill-rule="evenodd" fill-opacity="1" /><path clip-path="url(#clip710)" d="M 0 0 M130.26 1092.34 Q126.649 1092.34 124.82 1095.91 Q123.015 1099.45 123.015 1106.58 Q123.015 1113.68 124.82 1117.25 Q126.649 1120.79 130.26 1120.79 Q133.895 1120.79 135.7 1117.25 Q137.529 1113.68 137.529 1106.58 Q137.529 1099.45 135.7 1095.91 Q133.895 1092.34 130.26 1092.34 M130.26 1088.64 Q136.07 1088.64 139.126 1093.25 Q142.205 1097.83 142.205 1106.58 Q142.205 1115.31 139.126 1119.91 Q136.07 1124.5 130.26 1124.5 Q124.45 1124.5 121.371 1119.91 Q118.316 1115.31 118.316 1106.58 Q118.316 1097.83 121.371 1093.25 Q124.45 1088.64 130.26 1088.64 Z" fill="#000000" fill-rule="evenodd" fill-opacity="1" /><path clip-path="url(#clip710)" d="M 0 0 M78.5939 972.733 L66.7884 991.182 L78.5939 991.182 L78.5939 972.733 M77.367 968.659 L83.2466 968.659 L83.2466 991.182 L88.1772 991.182 L88.1772 995.071 L83.2466 995.071 L83.2466 1003.22 L78.5939 1003.22 L78.5939 995.071 L62.9921 995.071 L62.9921 990.557 L77.367 968.659 Z" fill="#000000" fill-rule="evenodd" fill-opacity="1" /><path clip-path="url(#clip710)" d="M 0 0 M103.247 971.738 Q99.6354 971.738 97.8068 975.303 Q96.0012 978.844 96.0012 985.974 Q96.0012 993.08 97.8068 996.645 Q99.6354 1000.19 103.247 1000.19 Q106.881 1000.19 108.686 996.645 Q110.515 993.08 110.515 985.974 Q110.515 978.844 108.686 975.303 Q106.881 971.738 103.247 971.738 M103.247 968.034 Q109.057 968.034 112.112 972.641 Q115.191 977.224 115.191 985.974 Q115.191 994.701 112.112 999.307 Q109.057 1003.89 103.247 1003.89 Q97.4364 1003.89 94.3577 999.307 Q91.3022 994.701 91.3022 985.974 Q91.3022 977.224 94.3577 972.641 Q97.4364 968.034 103.247 968.034 Z" fill="#000000" fill-rule="evenodd" fill-opacity="1" /><path clip-path="url(#clip710)" d="M 0 0 M130.26 971.738 Q126.649 971.738 124.82 975.303 Q123.015 978.844 123.015 985.974 Q123.015 993.08 124.82 996.645 Q126.649 1000.19 130.26 1000.19 Q133.895 1000.19 135.7 996.645 Q137.529 993.08 137.529 985.974 Q137.529 978.844 135.7 975.303 Q133.895 971.738 130.26 971.738 M130.26 968.034 Q136.07 968.034 139.126 972.641 Q142.205 977.224 142.205 985.974 Q142.205 994.701 139.126 999.307 Q136.07 1003.89 130.26 1003.89 Q124.45 1003.89 121.371 999.307 Q118.316 994.701 118.316 985.974 Q118.316 977.224 121.371 972.641 Q124.45 968.034 130.26 968.034 Z" fill="#000000" fill-rule="evenodd" fill-opacity="1" /><path clip-path="url(#clip710)" d="M 0 0 M67.2745 848.055 L85.6309 848.055 L85.6309 851.99 L71.5569 851.99 L71.5569 860.462 Q72.5754 860.115 73.5939 859.953 Q74.6124 859.768 75.6309 859.768 Q81.418 859.768 84.7976 862.939 Q88.1772 866.11 88.1772 871.527 Q88.1772 877.106 84.705 880.207 Q81.2328 883.286 74.9134 883.286 Q72.7374 883.286 70.4689 882.916 Q68.2236 882.545 65.8162 881.805 L65.8162 877.106 Q67.8995 878.24 70.1217 878.795 Q72.3439 879.351 74.8208 879.351 Q78.8254 879.351 81.1633 877.244 Q83.5013 875.138 83.5013 871.527 Q83.5013 867.916 81.1633 865.809 Q78.8254 863.703 74.8208 863.703 Q72.9458 863.703 71.0708 864.119 Q69.2189 864.536 67.2745 865.416 L67.2745 848.055 Z" fill="#000000" fill-rule="evenodd" fill-opacity="1" /><path clip-path="url(#clip710)" d="M 0 0 M103.247 851.133 Q99.6354 851.133 97.8068 854.698 Q96.0012 858.24 96.0012 865.369 Q96.0012 872.476 97.8068 876.041 Q99.6354 879.582 103.247 879.582 Q106.881 879.582 108.686 876.041 Q110.515 872.476 110.515 865.369 Q110.515 858.24 108.686 854.698 Q106.881 851.133 103.247 851.133 M103.247 847.43 Q109.057 847.43 112.112 852.036 Q115.191 856.62 115.191 865.369 Q115.191 874.096 112.112 878.703 Q109.057 883.286 103.247 883.286 Q97.4364 883.286 94.3577 878.703 Q91.3022 874.096 91.3022 865.369 Q91.3022 856.62 94.3577 852.036 Q97.4364 847.43 103.247 847.43 Z" fill="#000000" fill-rule="evenodd" fill-opacity="1" /><path clip-path="url(#clip710)" d="M 0 0 M130.26 851.133 Q126.649 851.133 124.82 854.698 Q123.015 858.24 123.015 865.369 Q123.015 872.476 124.82 876.041 Q126.649 879.582 130.26 879.582 Q133.895 879.582 135.7 876.041 Q137.529 872.476 137.529 865.369 Q137.529 858.24 135.7 854.698 Q133.895 851.133 130.26 851.133 M130.26 847.43 Q136.07 847.43 139.126 852.036 Q142.205 856.62 142.205 865.369 Q142.205 874.096 139.126 878.703 Q136.07 883.286 130.26 883.286 Q124.45 883.286 121.371 878.703 Q118.316 874.096 118.316 865.369 Q118.316 856.62 121.371 852.036 Q124.45 847.43 130.26 847.43 Z" fill="#000000" fill-rule="evenodd" fill-opacity="1" /><path clip-path="url(#clip714)" d="
M220.467 865.335 L220.467 1468.36 L264.924 1468.36 L264.924 865.335 L220.467 865.335 L220.467 865.335  Z
  " fill="#009af9" fill-rule="evenodd" fill-opacity="1"/>
<polyline clip-path="url(#clip714)" style="stroke:#000000; stroke-width:4; stroke-opacity:1; fill:none" points="
  220.467,865.335 220.467,1468.36 264.924,1468.36 264.924,865.335 220.467,865.335 
  "/>
<path clip-path="url(#clip714)" d="
M276.038 1468.36 L276.038 1468.36 L320.495 1468.36 L320.495 1468.36 L276.038 1468.36 L276.038 1468.36  Z
  " fill="#009af9" fill-rule="evenodd" fill-opacity="1"/>
<polyline clip-path="url(#clip714)" style="stroke:#000000; stroke-width:4; stroke-opacity:1; fill:none" points="
  276.038,1468.36 276.038,1468.36 320.495,1468.36 276.038,1468.36 
  "/>
<path clip-path="url(#clip714)" d="
M331.609 1468.36 L331.609 1468.36 L376.066 1468.36 L376.066 1468.36 L331.609 1468.36 L331.609 1468.36  Z
  " fill="#009af9" fill-rule="evenodd" fill-opacity="1"/>
<polyline clip-path="url(#clip714)" style="stroke:#000000; stroke-width:4; stroke-opacity:1; fill:none" points="
  331.609,1468.36 331.609,1468.36 376.066,1468.36 331.609,1468.36 
  "/>
<path clip-path="url(#clip714)" d="
M387.181 1468.36 L387.181 1468.36 L431.638 1468.36 L431.638 1468.36 L387.181 1468.36 L387.181 1468.36  Z
  " fill="#009af9" fill-rule="evenodd" fill-opacity="1"/>
<polyline clip-path="url(#clip714)" style="stroke:#000000; stroke-width:4; stroke-opacity:1; fill:none" points="
  387.181,1468.36 387.181,1468.36 431.638,1468.36 387.181,1468.36 
  "/>
<path clip-path="url(#clip714)" d="
M442.752 1468.36 L442.752 1468.36 L487.209 1468.36 L487.209 1468.36 L442.752 1468.36 L442.752 1468.36  Z
  " fill="#009af9" fill-rule="evenodd" fill-opacity="1"/>
<polyline clip-path="url(#clip714)" style="stroke:#000000; stroke-width:4; stroke-opacity:1; fill:none" points="
  442.752,1468.36 442.752,1468.36 487.209,1468.36 442.752,1468.36 
  "/>
<path clip-path="url(#clip714)" d="
M498.323 1468.36 L498.323 1468.36 L542.78 1468.36 L542.78 1468.36 L498.323 1468.36 L498.323 1468.36  Z
  " fill="#009af9" fill-rule="evenodd" fill-opacity="1"/>
<polyline clip-path="url(#clip714)" style="stroke:#000000; stroke-width:4; stroke-opacity:1; fill:none" points="
  498.323,1468.36 498.323,1468.36 542.78,1468.36 498.323,1468.36 
  "/>
<path clip-path="url(#clip714)" d="
M553.895 1468.36 L553.895 1468.36 L598.352 1468.36 L598.352 1468.36 L553.895 1468.36 L553.895 1468.36  Z
  " fill="#009af9" fill-rule="evenodd" fill-opacity="1"/>
<polyline clip-path="url(#clip714)" style="stroke:#000000; stroke-width:4; stroke-opacity:1; fill:none" points="
  553.895,1468.36 553.895,1468.36 598.352,1468.36 553.895,1468.36 
  "/>
<path clip-path="url(#clip714)" d="
M609.466 1468.36 L609.466 1468.36 L653.923 1468.36 L653.923 1468.36 L609.466 1468.36 L609.466 1468.36  Z
  " fill="#009af9" fill-rule="evenodd" fill-opacity="1"/>
<polyline clip-path="url(#clip714)" style="stroke:#000000; stroke-width:4; stroke-opacity:1; fill:none" points="
  609.466,1468.36 609.466,1468.36 653.923,1468.36 609.466,1468.36 
  "/>
<path clip-path="url(#clip714)" d="
M665.037 1468.36 L665.037 1468.36 L709.494 1468.36 L709.494 1468.36 L665.037 1468.36 L665.037 1468.36  Z
  " fill="#009af9" fill-rule="evenodd" fill-opacity="1"/>
<polyline clip-path="url(#clip714)" style="stroke:#000000; stroke-width:4; stroke-opacity:1; fill:none" points="
  665.037,1468.36 665.037,1468.36 709.494,1468.36 665.037,1468.36 
  "/>
<path clip-path="url(#clip714)" d="
M720.609 1468.36 L720.609 1468.36 L765.066 1468.36 L765.066 1468.36 L720.609 1468.36 L720.609 1468.36  Z
  " fill="#009af9" fill-rule="evenodd" fill-opacity="1"/>
<polyline clip-path="url(#clip714)" style="stroke:#000000; stroke-width:4; stroke-opacity:1; fill:none" points="
  720.609,1468.36 720.609,1468.36 765.066,1468.36 720.609,1468.36 
  "/>
<path clip-path="url(#clip714)" d="
M776.18 1468.36 L776.18 1468.36 L820.637 1468.36 L820.637 1468.36 L776.18 1468.36 L776.18 1468.36  Z
  " fill="#009af9" fill-rule="evenodd" fill-opacity="1"/>
<polyline clip-path="url(#clip714)" style="stroke:#000000; stroke-width:4; stroke-opacity:1; fill:none" points="
  776.18,1468.36 776.18,1468.36 820.637,1468.36 776.18,1468.36 
  "/>
<path clip-path="url(#clip714)" d="
M831.751 1468.36 L831.751 1468.36 L876.208 1468.36 L876.208 1468.36 L831.751 1468.36 L831.751 1468.36  Z
  " fill="#009af9" fill-rule="evenodd" fill-opacity="1"/>
<polyline clip-path="url(#clip714)" style="stroke:#000000; stroke-width:4; stroke-opacity:1; fill:none" points="
  831.751,1468.36 831.751,1468.36 876.208,1468.36 831.751,1468.36 
  "/>
<path clip-path="url(#clip714)" d="
M887.323 1468.36 L887.323 1468.36 L931.78 1468.36 L931.78 1468.36 L887.323 1468.36 L887.323 1468.36  Z
  " fill="#009af9" fill-rule="evenodd" fill-opacity="1"/>
<polyline clip-path="url(#clip714)" style="stroke:#000000; stroke-width:4; stroke-opacity:1; fill:none" points="
  887.323,1468.36 887.323,1468.36 931.78,1468.36 887.323,1468.36 
  "/>
<path clip-path="url(#clip714)" d="
M942.894 1468.36 L942.894 1468.36 L987.351 1468.36 L987.351 1468.36 L942.894 1468.36 L942.894 1468.36  Z
  " fill="#009af9" fill-rule="evenodd" fill-opacity="1"/>
<polyline clip-path="url(#clip714)" style="stroke:#000000; stroke-width:4; stroke-opacity:1; fill:none" points="
  942.894,1468.36 942.894,1468.36 987.351,1468.36 942.894,1468.36 
  "/>
<path clip-path="url(#clip714)" d="
M998.465 1468.36 L998.465 1468.36 L1042.92 1468.36 L1042.92 1468.36 L998.465 1468.36 L998.465 1468.36  Z
  " fill="#009af9" fill-rule="evenodd" fill-opacity="1"/>
<polyline clip-path="url(#clip714)" style="stroke:#000000; stroke-width:4; stroke-opacity:1; fill:none" points="
  998.465,1468.36 998.465,1468.36 1042.92,1468.36 998.465,1468.36 
  "/>
<path clip-path="url(#clip714)" d="
M1054.04 865.335 L1054.04 1468.36 L1098.49 1468.36 L1098.49 865.335 L1054.04 865.335 L1054.04 865.335  Z
  " fill="#009af9" fill-rule="evenodd" fill-opacity="1"/>
<polyline clip-path="url(#clip714)" style="stroke:#000000; stroke-width:4; stroke-opacity:1; fill:none" points="
  1054.04,865.335 1054.04,1468.36 1098.49,1468.36 1098.49,865.335 1054.04,865.335 
  "/>
<path clip-path="url(#clip710)" d="
M1366.2 1486.45 L2352.76 1486.45 L2352.76 847.244 L1366.2 847.244  Z
  " fill="#ffffff" fill-rule="evenodd" fill-opacity="1"/>
<defs>
  <clipPath id="clip715">
    <rect x="1366" y="847" width="988" height="640"/>
  </clipPath>
</defs>
<polyline clip-path="url(#clip715)" style="stroke:#000000; stroke-width:2; stroke-opacity:0.1; fill:none" points="
  1512.89,1486.45 1512.89,847.244 
  "/>
<polyline clip-path="url(#clip715)" style="stroke:#000000; stroke-width:2; stroke-opacity:0.1; fill:none" points="
  1743.95,1486.45 1743.95,847.244 
  "/>
<polyline clip-path="url(#clip715)" style="stroke:#000000; stroke-width:2; stroke-opacity:0.1; fill:none" points="
  1975.01,1486.45 1975.01,847.244 
  "/>
<polyline clip-path="url(#clip715)" style="stroke:#000000; stroke-width:2; stroke-opacity:0.1; fill:none" points="
  2206.07,1486.45 2206.07,847.244 
  "/>
<polyline clip-path="url(#clip715)" style="stroke:#000000; stroke-width:2; stroke-opacity:0.1; fill:none" points="
  1366.2,1468.36 2352.76,1468.36 
  "/>
<polyline clip-path="url(#clip715)" style="stroke:#000000; stroke-width:2; stroke-opacity:0.1; fill:none" points="
  1366.2,1353.5 2352.76,1353.5 
  "/>
<polyline clip-path="url(#clip715)" style="stroke:#000000; stroke-width:2; stroke-opacity:0.1; fill:none" points="
  1366.2,1238.63 2352.76,1238.63 
  "/>
<polyline clip-path="url(#clip715)" style="stroke:#000000; stroke-width:2; stroke-opacity:0.1; fill:none" points="
  1366.2,1123.77 2352.76,1123.77 
  "/>
<polyline clip-path="url(#clip715)" style="stroke:#000000; stroke-width:2; stroke-opacity:0.1; fill:none" points="
  1366.2,1008.91 2352.76,1008.91 
  "/>
<polyline clip-path="url(#clip715)" style="stroke:#000000; stroke-width:2; stroke-opacity:0.1; fill:none" points="
  1366.2,894.05 2352.76,894.05 
  "/>
<polyline clip-path="url(#clip710)" style="stroke:#000000; stroke-width:4; stroke-opacity:1; fill:none" points="
  1366.2,1486.45 2352.76,1486.45 
  "/>
<polyline clip-path="url(#clip710)" style="stroke:#000000; stroke-width:4; stroke-opacity:1; fill:none" points="
  1366.2,1486.45 1366.2,847.244 
  "/>
<polyline clip-path="url(#clip710)" style="stroke:#000000; stroke-width:4; stroke-opacity:1; fill:none" points="
  1512.89,1486.45 1512.89,1478.78 
  "/>
<polyline clip-path="url(#clip710)" style="stroke:#000000; stroke-width:4; stroke-opacity:1; fill:none" points="
  1743.95,1486.45 1743.95,1478.78 
  "/>
<polyline clip-path="url(#clip710)" style="stroke:#000000; stroke-width:4; stroke-opacity:1; fill:none" points="
  1975.01,1486.45 1975.01,1478.78 
  "/>
<polyline clip-path="url(#clip710)" style="stroke:#000000; stroke-width:4; stroke-opacity:1; fill:none" points="
  2206.07,1486.45 2206.07,1478.78 
  "/>
<polyline clip-path="url(#clip710)" style="stroke:#000000; stroke-width:4; stroke-opacity:1; fill:none" points="
  1366.2,1468.36 1378.04,1468.36 
  "/>
<polyline clip-path="url(#clip710)" style="stroke:#000000; stroke-width:4; stroke-opacity:1; fill:none" points="
  1366.2,1353.5 1378.04,1353.5 
  "/>
<polyline clip-path="url(#clip710)" style="stroke:#000000; stroke-width:4; stroke-opacity:1; fill:none" points="
  1366.2,1238.63 1378.04,1238.63 
  "/>
<polyline clip-path="url(#clip710)" style="stroke:#000000; stroke-width:4; stroke-opacity:1; fill:none" points="
  1366.2,1123.77 1378.04,1123.77 
  "/>
<polyline clip-path="url(#clip710)" style="stroke:#000000; stroke-width:4; stroke-opacity:1; fill:none" points="
  1366.2,1008.91 1378.04,1008.91 
  "/>
<polyline clip-path="url(#clip710)" style="stroke:#000000; stroke-width:4; stroke-opacity:1; fill:none" points="
  1366.2,894.05 1378.04,894.05 
  "/>
<path clip-path="url(#clip710)" d="M 0 0 M1512.89 1508.44 Q1509.28 1508.44 1507.45 1512 Q1505.65 1515.55 1505.65 1522.67 Q1505.65 1529.78 1507.45 1533.35 Q1509.28 1536.89 1512.89 1536.89 Q1516.52 1536.89 1518.33 1533.35 Q1520.16 1529.78 1520.16 1522.67 Q1520.16 1515.55 1518.33 1512 Q1516.52 1508.44 1512.89 1508.44 M1512.89 1504.73 Q1518.7 1504.73 1521.76 1509.34 Q1524.84 1513.92 1524.84 1522.67 Q1524.84 1531.4 1521.76 1536.01 Q1518.7 1540.59 1512.89 1540.59 Q1507.08 1540.59 1504 1536.01 Q1500.95 1531.4 1500.95 1522.67 Q1500.95 1513.92 1504 1509.34 Q1507.08 1504.73 1512.89 1504.73 Z" fill="#000000" fill-rule="evenodd" fill-opacity="1" /><path clip-path="url(#clip710)" d="M 0 0 M1734.33 1535.98 L1741.97 1535.98 L1741.97 1509.62 L1733.66 1511.29 L1733.66 1507.03 L1741.92 1505.36 L1746.6 1505.36 L1746.6 1535.98 L1754.24 1535.98 L1754.24 1539.92 L1734.33 1539.92 L1734.33 1535.98 Z" fill="#000000" fill-rule="evenodd" fill-opacity="1" /><path clip-path="url(#clip710)" d="M 0 0 M1969.66 1535.98 L1985.98 1535.98 L1985.98 1539.92 L1964.04 1539.92 L1964.04 1535.98 Q1966.7 1533.23 1971.28 1528.6 Q1975.89 1523.95 1977.07 1522.61 Q1979.32 1520.08 1980.2 1518.35 Q1981.1 1516.59 1981.1 1514.9 Q1981.1 1512.14 1979.15 1510.41 Q1977.23 1508.67 1974.13 1508.67 Q1971.93 1508.67 1969.48 1509.43 Q1967.05 1510.2 1964.27 1511.75 L1964.27 1507.03 Q1967.09 1505.89 1969.55 1505.31 Q1972 1504.73 1974.04 1504.73 Q1979.41 1504.73 1982.6 1507.42 Q1985.8 1510.11 1985.8 1514.6 Q1985.8 1516.73 1984.99 1518.65 Q1984.2 1520.54 1982.09 1523.14 Q1981.51 1523.81 1978.41 1527.03 Q1975.31 1530.22 1969.66 1535.98 Z" fill="#000000" fill-rule="evenodd" fill-opacity="1" /><path clip-path="url(#clip710)" d="M 0 0 M2210.32 1521.29 Q2213.67 1522 2215.55 1524.27 Q2217.45 1526.54 2217.45 1529.87 Q2217.45 1534.99 2213.93 1537.79 Q2210.41 1540.59 2203.93 1540.59 Q2201.75 1540.59 2199.44 1540.15 Q2197.15 1539.73 2194.69 1538.88 L2194.69 1534.36 Q2196.64 1535.5 2198.95 1536.08 Q2201.27 1536.66 2203.79 1536.66 Q2208.19 1536.66 2210.48 1534.92 Q2212.79 1533.18 2212.79 1529.87 Q2212.79 1526.82 2210.64 1525.11 Q2208.51 1523.37 2204.69 1523.37 L2200.66 1523.37 L2200.66 1519.53 L2204.88 1519.53 Q2208.33 1519.53 2210.16 1518.16 Q2211.98 1516.77 2211.98 1514.18 Q2211.98 1511.52 2210.09 1510.11 Q2208.21 1508.67 2204.69 1508.67 Q2202.77 1508.67 2200.57 1509.09 Q2198.37 1509.5 2195.73 1510.38 L2195.73 1506.22 Q2198.4 1505.48 2200.71 1505.11 Q2203.05 1504.73 2205.11 1504.73 Q2210.43 1504.73 2213.54 1507.17 Q2216.64 1509.57 2216.64 1513.69 Q2216.64 1516.56 2214.99 1518.55 Q2213.35 1520.52 2210.32 1521.29 Z" fill="#000000" fill-rule="evenodd" fill-opacity="1" /><path clip-path="url(#clip710)" d="M 0 0 M1330.26 1454.16 Q1326.65 1454.16 1324.82 1457.72 Q1323.01 1461.26 1323.01 1468.39 Q1323.01 1475.5 1324.82 1479.06 Q1326.65 1482.6 1330.26 1482.6 Q1333.89 1482.6 1335.7 1479.06 Q1337.53 1475.5 1337.53 1468.39 Q1337.53 1461.26 1335.7 1457.72 Q1333.89 1454.16 1330.26 1454.16 M1330.26 1450.45 Q1336.07 1450.45 1339.13 1455.06 Q1342.2 1459.64 1342.2 1468.39 Q1342.2 1477.12 1339.13 1481.73 Q1336.07 1486.31 1330.26 1486.31 Q1324.45 1486.31 1321.37 1481.73 Q1318.32 1477.12 1318.32 1468.39 Q1318.32 1459.64 1321.37 1455.06 Q1324.45 1450.45 1330.26 1450.45 Z" fill="#000000" fill-rule="evenodd" fill-opacity="1" /><path clip-path="url(#clip710)" d="M 0 0 M1268.27 1366.84 L1275.91 1366.84 L1275.91 1340.48 L1267.6 1342.14 L1267.6 1337.88 L1275.86 1336.22 L1280.54 1336.22 L1280.54 1366.84 L1288.18 1366.84 L1288.18 1370.78 L1268.27 1370.78 L1268.27 1366.84 Z" fill="#000000" fill-rule="evenodd" fill-opacity="1" /><path clip-path="url(#clip710)" d="M 0 0 M1303.25 1339.29 Q1299.64 1339.29 1297.81 1342.86 Q1296 1346.4 1296 1353.53 Q1296 1360.64 1297.81 1364.2 Q1299.64 1367.74 1303.25 1367.74 Q1306.88 1367.74 1308.69 1364.2 Q1310.52 1360.64 1310.52 1353.53 Q1310.52 1346.4 1308.69 1342.86 Q1306.88 1339.29 1303.25 1339.29 M1303.25 1335.59 Q1309.06 1335.59 1312.11 1340.2 Q1315.19 1344.78 1315.19 1353.53 Q1315.19 1362.26 1312.11 1366.86 Q1309.06 1371.45 1303.25 1371.45 Q1297.44 1371.45 1294.36 1366.86 Q1291.3 1362.26 1291.3 1353.53 Q1291.3 1344.78 1294.36 1340.2 Q1297.44 1335.59 1303.25 1335.59 Z" fill="#000000" fill-rule="evenodd" fill-opacity="1" /><path clip-path="url(#clip710)" d="M 0 0 M1330.26 1339.29 Q1326.65 1339.29 1324.82 1342.86 Q1323.01 1346.4 1323.01 1353.53 Q1323.01 1360.64 1324.82 1364.2 Q1326.65 1367.74 1330.26 1367.74 Q1333.89 1367.74 1335.7 1364.2 Q1337.53 1360.64 1337.53 1353.53 Q1337.53 1346.4 1335.7 1342.86 Q1333.89 1339.29 1330.26 1339.29 M1330.26 1335.59 Q1336.07 1335.59 1339.13 1340.2 Q1342.2 1344.78 1342.2 1353.53 Q1342.2 1362.26 1339.13 1366.86 Q1336.07 1371.45 1330.26 1371.45 Q1324.45 1371.45 1321.37 1366.86 Q1318.32 1362.26 1318.32 1353.53 Q1318.32 1344.78 1321.37 1340.2 Q1324.45 1335.59 1330.26 1335.59 Z" fill="#000000" fill-rule="evenodd" fill-opacity="1" /><path clip-path="url(#clip710)" d="M 0 0 M1271.86 1251.98 L1288.18 1251.98 L1288.18 1255.91 L1266.23 1255.91 L1266.23 1251.98 Q1268.89 1249.22 1273.48 1244.59 Q1278.08 1239.94 1279.27 1238.6 Q1281.51 1236.08 1282.39 1234.34 Q1283.29 1232.58 1283.29 1230.89 Q1283.29 1228.14 1281.35 1226.4 Q1279.43 1224.66 1276.33 1224.66 Q1274.13 1224.66 1271.67 1225.43 Q1269.24 1226.19 1266.46 1227.74 L1266.46 1223.02 Q1269.29 1221.89 1271.74 1221.31 Q1274.2 1220.73 1276.23 1220.73 Q1281.6 1220.73 1284.8 1223.41 Q1287.99 1226.1 1287.99 1230.59 Q1287.99 1232.72 1287.18 1234.64 Q1286.39 1236.54 1284.29 1239.13 Q1283.71 1239.8 1280.61 1243.02 Q1277.51 1246.22 1271.86 1251.98 Z" fill="#000000" fill-rule="evenodd" fill-opacity="1" /><path clip-path="url(#clip710)" d="M 0 0 M1303.25 1224.43 Q1299.64 1224.43 1297.81 1228 Q1296 1231.54 1296 1238.67 Q1296 1245.78 1297.81 1249.34 Q1299.64 1252.88 1303.25 1252.88 Q1306.88 1252.88 1308.69 1249.34 Q1310.52 1245.78 1310.52 1238.67 Q1310.52 1231.54 1308.69 1228 Q1306.88 1224.43 1303.25 1224.43 M1303.25 1220.73 Q1309.06 1220.73 1312.11 1225.34 Q1315.19 1229.92 1315.19 1238.67 Q1315.19 1247.4 1312.11 1252 Q1309.06 1256.59 1303.25 1256.59 Q1297.44 1256.59 1294.36 1252 Q1291.3 1247.4 1291.3 1238.67 Q1291.3 1229.92 1294.36 1225.34 Q1297.44 1220.73 1303.25 1220.73 Z" fill="#000000" fill-rule="evenodd" fill-opacity="1" /><path clip-path="url(#clip710)" d="M 0 0 M1330.26 1224.43 Q1326.65 1224.43 1324.82 1228 Q1323.01 1231.54 1323.01 1238.67 Q1323.01 1245.78 1324.82 1249.34 Q1326.65 1252.88 1330.26 1252.88 Q1333.89 1252.88 1335.7 1249.34 Q1337.53 1245.78 1337.53 1238.67 Q1337.53 1231.54 1335.7 1228 Q1333.89 1224.43 1330.26 1224.43 M1330.26 1220.73 Q1336.07 1220.73 1339.13 1225.34 Q1342.2 1229.92 1342.2 1238.67 Q1342.2 1247.4 1339.13 1252 Q1336.07 1256.59 1330.26 1256.59 Q1324.45 1256.59 1321.37 1252 Q1318.32 1247.4 1318.32 1238.67 Q1318.32 1229.92 1321.37 1225.34 Q1324.45 1220.73 1330.26 1220.73 Z" fill="#000000" fill-rule="evenodd" fill-opacity="1" /><path clip-path="url(#clip710)" d="M 0 0 M1281.05 1122.42 Q1284.4 1123.14 1286.28 1125.4 Q1288.18 1127.67 1288.18 1131.01 Q1288.18 1136.12 1284.66 1138.92 Q1281.14 1141.72 1274.66 1141.72 Q1272.48 1141.72 1270.17 1141.28 Q1267.88 1140.87 1265.42 1140.01 L1265.42 1135.5 Q1267.37 1136.63 1269.68 1137.21 Q1272 1137.79 1274.52 1137.79 Q1278.92 1137.79 1281.21 1136.05 Q1283.52 1134.32 1283.52 1131.01 Q1283.52 1127.95 1281.37 1126.24 Q1279.24 1124.5 1275.42 1124.5 L1271.39 1124.5 L1271.39 1120.66 L1275.61 1120.66 Q1279.06 1120.66 1280.89 1119.29 Q1282.71 1117.9 1282.71 1115.31 Q1282.71 1112.65 1280.82 1111.24 Q1278.94 1109.8 1275.42 1109.8 Q1273.5 1109.8 1271.3 1110.22 Q1269.1 1110.64 1266.46 1111.52 L1266.46 1107.35 Q1269.13 1106.61 1271.44 1106.24 Q1273.78 1105.87 1275.84 1105.87 Q1281.16 1105.87 1284.27 1108.3 Q1287.37 1110.71 1287.37 1114.83 Q1287.37 1117.7 1285.72 1119.69 Q1284.08 1121.65 1281.05 1122.42 Z" fill="#000000" fill-rule="evenodd" fill-opacity="1" /><path clip-path="url(#clip710)" d="M 0 0 M1303.25 1109.57 Q1299.64 1109.57 1297.81 1113.14 Q1296 1116.68 1296 1123.81 Q1296 1130.91 1297.81 1134.48 Q1299.64 1138.02 1303.25 1138.02 Q1306.88 1138.02 1308.69 1134.48 Q1310.52 1130.91 1310.52 1123.81 Q1310.52 1116.68 1308.69 1113.14 Q1306.88 1109.57 1303.25 1109.57 M1303.25 1105.87 Q1309.06 1105.87 1312.11 1110.47 Q1315.19 1115.06 1315.19 1123.81 Q1315.19 1132.53 1312.11 1137.14 Q1309.06 1141.72 1303.25 1141.72 Q1297.44 1141.72 1294.36 1137.14 Q1291.3 1132.53 1291.3 1123.81 Q1291.3 1115.06 1294.36 1110.47 Q1297.44 1105.87 1303.25 1105.87 Z" fill="#000000" fill-rule="evenodd" fill-opacity="1" /><path clip-path="url(#clip710)" d="M 0 0 M1330.26 1109.57 Q1326.65 1109.57 1324.82 1113.14 Q1323.01 1116.68 1323.01 1123.81 Q1323.01 1130.91 1324.82 1134.48 Q1326.65 1138.02 1330.26 1138.02 Q1333.89 1138.02 1335.7 1134.48 Q1337.53 1130.91 1337.53 1123.81 Q1337.53 1116.68 1335.7 1113.14 Q1333.89 1109.57 1330.26 1109.57 M1330.26 1105.87 Q1336.07 1105.87 1339.13 1110.47 Q1342.2 1115.06 1342.2 1123.81 Q1342.2 1132.53 1339.13 1137.14 Q1336.07 1141.72 1330.26 1141.72 Q1324.45 1141.72 1321.37 1137.14 Q1318.32 1132.53 1318.32 1123.81 Q1318.32 1115.06 1321.37 1110.47 Q1324.45 1105.87 1330.26 1105.87 Z" fill="#000000" fill-rule="evenodd" fill-opacity="1" /><path clip-path="url(#clip710)" d="M 0 0 M1278.59 995.706 L1266.79 1014.15 L1278.59 1014.15 L1278.59 995.706 M1277.37 991.632 L1283.25 991.632 L1283.25 1014.15 L1288.18 1014.15 L1288.18 1018.04 L1283.25 1018.04 L1283.25 1026.19 L1278.59 1026.19 L1278.59 1018.04 L1262.99 1018.04 L1262.99 1013.53 L1277.37 991.632 Z" fill="#000000" fill-rule="evenodd" fill-opacity="1" /><path clip-path="url(#clip710)" d="M 0 0 M1303.25 994.71 Q1299.64 994.71 1297.81 998.275 Q1296 1001.82 1296 1008.95 Q1296 1016.05 1297.81 1019.62 Q1299.64 1023.16 1303.25 1023.16 Q1306.88 1023.16 1308.69 1019.62 Q1310.52 1016.05 1310.52 1008.95 Q1310.52 1001.82 1308.69 998.275 Q1306.88 994.71 1303.25 994.71 M1303.25 991.007 Q1309.06 991.007 1312.11 995.613 Q1315.19 1000.2 1315.19 1008.95 Q1315.19 1017.67 1312.11 1022.28 Q1309.06 1026.86 1303.25 1026.86 Q1297.44 1026.86 1294.36 1022.28 Q1291.3 1017.67 1291.3 1008.95 Q1291.3 1000.2 1294.36 995.613 Q1297.44 991.007 1303.25 991.007 Z" fill="#000000" fill-rule="evenodd" fill-opacity="1" /><path clip-path="url(#clip710)" d="M 0 0 M1330.26 994.71 Q1326.65 994.71 1324.82 998.275 Q1323.01 1001.82 1323.01 1008.95 Q1323.01 1016.05 1324.82 1019.62 Q1326.65 1023.16 1330.26 1023.16 Q1333.89 1023.16 1335.7 1019.62 Q1337.53 1016.05 1337.53 1008.95 Q1337.53 1001.82 1335.7 998.275 Q1333.89 994.71 1330.26 994.71 M1330.26 991.007 Q1336.07 991.007 1339.13 995.613 Q1342.2 1000.2 1342.2 1008.95 Q1342.2 1017.67 1339.13 1022.28 Q1336.07 1026.86 1330.26 1026.86 Q1324.45 1026.86 1321.37 1022.28 Q1318.32 1017.67 1318.32 1008.95 Q1318.32 1000.2 1321.37 995.613 Q1324.45 991.007 1330.26 991.007 Z" fill="#000000" fill-rule="evenodd" fill-opacity="1" /><path clip-path="url(#clip710)" d="M 0 0 M1267.27 876.77 L1285.63 876.77 L1285.63 880.705 L1271.56 880.705 L1271.56 889.177 Q1272.58 888.83 1273.59 888.668 Q1274.61 888.483 1275.63 888.483 Q1281.42 888.483 1284.8 891.654 Q1288.18 894.826 1288.18 900.242 Q1288.18 905.821 1284.7 908.923 Q1281.23 912.001 1274.91 912.001 Q1272.74 912.001 1270.47 911.631 Q1268.22 911.261 1265.82 910.52 L1265.82 905.821 Q1267.9 906.955 1270.12 907.511 Q1272.34 908.066 1274.82 908.066 Q1278.83 908.066 1281.16 905.96 Q1283.5 903.853 1283.5 900.242 Q1283.5 896.631 1281.16 894.525 Q1278.83 892.418 1274.82 892.418 Q1272.95 892.418 1271.07 892.835 Q1269.22 893.252 1267.27 894.131 L1267.27 876.77 Z" fill="#000000" fill-rule="evenodd" fill-opacity="1" /><path clip-path="url(#clip710)" d="M 0 0 M1303.25 879.849 Q1299.64 879.849 1297.81 883.414 Q1296 886.955 1296 894.085 Q1296 901.191 1297.81 904.756 Q1299.64 908.298 1303.25 908.298 Q1306.88 908.298 1308.69 904.756 Q1310.52 901.191 1310.52 894.085 Q1310.52 886.955 1308.69 883.414 Q1306.88 879.849 1303.25 879.849 M1303.25 876.145 Q1309.06 876.145 1312.11 880.752 Q1315.19 885.335 1315.19 894.085 Q1315.19 902.812 1312.11 907.418 Q1309.06 912.001 1303.25 912.001 Q1297.44 912.001 1294.36 907.418 Q1291.3 902.812 1291.3 894.085 Q1291.3 885.335 1294.36 880.752 Q1297.44 876.145 1303.25 876.145 Z" fill="#000000" fill-rule="evenodd" fill-opacity="1" /><path clip-path="url(#clip710)" d="M 0 0 M1330.26 879.849 Q1326.65 879.849 1324.82 883.414 Q1323.01 886.955 1323.01 894.085 Q1323.01 901.191 1324.82 904.756 Q1326.65 908.298 1330.26 908.298 Q1333.89 908.298 1335.7 904.756 Q1337.53 901.191 1337.53 894.085 Q1337.53 886.955 1335.7 883.414 Q1333.89 879.849 1330.26 879.849 M1330.26 876.145 Q1336.07 876.145 1339.13 880.752 Q1342.2 885.335 1342.2 894.085 Q1342.2 902.812 1339.13 907.418 Q1336.07 912.001 1330.26 912.001 Q1324.45 912.001 1321.37 907.418 Q1318.32 902.812 1318.32 894.085 Q1318.32 885.335 1321.37 880.752 Q1324.45 876.145 1330.26 876.145 Z" fill="#000000" fill-rule="evenodd" fill-opacity="1" /><path clip-path="url(#clip715)" d="
M1420.47 922.765 L1420.47 1468.36 L1605.31 1468.36 L1605.31 922.765 L1420.47 922.765 L1420.47 922.765  Z
  " fill="#009af9" fill-rule="evenodd" fill-opacity="1"/>
<polyline clip-path="url(#clip715)" style="stroke:#000000; stroke-width:4; stroke-opacity:1; fill:none" points="
  1420.47,922.765 1420.47,1468.36 1605.31,1468.36 1605.31,922.765 1420.47,922.765 
  "/>
<path clip-path="url(#clip715)" d="
M1651.53 1468.36 L1651.53 1468.36 L1836.37 1468.36 L1836.37 1468.36 L1651.53 1468.36 L1651.53 1468.36  Z
  " fill="#009af9" fill-rule="evenodd" fill-opacity="1"/>
<polyline clip-path="url(#clip715)" style="stroke:#000000; stroke-width:4; stroke-opacity:1; fill:none" points="
  1651.53,1468.36 1651.53,1468.36 1836.37,1468.36 1651.53,1468.36 
  "/>
<path clip-path="url(#clip715)" d="
M1882.59 1468.36 L1882.59 1468.36 L2067.43 1468.36 L2067.43 1468.36 L1882.59 1468.36 L1882.59 1468.36  Z
  " fill="#009af9" fill-rule="evenodd" fill-opacity="1"/>
<polyline clip-path="url(#clip715)" style="stroke:#000000; stroke-width:4; stroke-opacity:1; fill:none" points="
  1882.59,1468.36 1882.59,1468.36 2067.43,1468.36 1882.59,1468.36 
  "/>
<path clip-path="url(#clip715)" d="
M2113.65 865.335 L2113.65 1468.36 L2298.49 1468.36 L2298.49 865.335 L2113.65 865.335 L2113.65 865.335  Z
  " fill="#009af9" fill-rule="evenodd" fill-opacity="1"/>
<polyline clip-path="url(#clip715)" style="stroke:#000000; stroke-width:4; stroke-opacity:1; fill:none" points="
  2113.65,865.335 2113.65,1468.36 2298.49,1468.36 2298.49,865.335 2113.65,865.335 
  "/>
</svg>
